<?xml version="1.0" encoding="UTF-8" standalone="no"?> <!-- Created with Vectornator (http://vectornator.io/) --><!DOCTYPE svg PUBLIC "-//W3C//DTD SVG 1.1//EN" "http://www.w3.org/Graphics/SVG/1.1/DTD/svg11.dtd">
<svg height="100%" stroke-miterlimit="10" style="fill-rule:nonzero;clip-rule:evenodd;stroke-linecap:round;stroke-linejoin:round;" version="1.1" viewBox="0 0 798 724" width="100%" xml:space="preserve" xmlns="http://www.w3.org/2000/svg" xmlns:vectornator="http://vectornator.io" xmlns:xlink="http://www.w3.org/1999/xlink">
<metadata>
<vectornator:setting key="IsTimeLapseWatermarkDisabled" value="false"/>
<vectornator:setting key="UndoHistoryDisabled" value="true"/>
<vectornator:setting key="VNDimensionsVisible" value="true"/>
<vectornator:setting key="VNSnapToGuides" value="false"/>
<vectornator:setting key="WDCMYKEnabledKey" value="false"/>
<vectornator:setting key="WDDisplayWhiteBackground" value="false"/>
<vectornator:setting key="WDDynamicGuides" value="true"/>
<vectornator:setting key="WDGuidesVisible" value="true"/>
<vectornator:setting key="WDIsolateActiveLayer" value="false"/>
<vectornator:setting key="WDOutlineMode" value="false"/>
<vectornator:setting key="WDRulersVisible" value="true"/>
<vectornator:setting key="WDSnapToEdges" value="true"/>
<vectornator:setting key="WDSnapToGrid" value="false"/>
<vectornator:setting key="WDSnapToPoints" value="false"/>
<vectornator:setting key="WDUnits" value="Pixels"/>
</metadata>
<defs>
<filter color-interpolation-filters="sRGB" filterUnits="userSpaceOnUse" height="531.965" id="Filter" width="1082.49" x="0" y="119.773">
<feDropShadow dx="-3.6732e-05" dy="10" flood-color="#000000" flood-opacity="0.333" height="531.965" stdDeviation="5" width="1082.49"/>
</filter>
<filter color-interpolation-filters="sRGB" filterUnits="userSpaceOnUse" height="379.422" id="Filter_2" width="154.946" x="297.437" y="200.604">
<feDropShadow dx="-3.6732e-05" dy="10" flood-color="#000000" flood-opacity="0.333" height="379.422" stdDeviation="5" width="154.946"/>
</filter>
<filter color-interpolation-filters="sRGB" filterUnits="userSpaceOnUse" height="383.987" id="Filter_3" width="255.926" x="350.222" y="197.859">
<feDropShadow dx="-3.6732e-05" dy="10" flood-color="#000000" flood-opacity="0.333" height="383.987" stdDeviation="5" width="255.926"/>
</filter>
<filter color-interpolation-filters="sRGB" filterUnits="userSpaceOnUse" height="377.102" id="Filter_4" width="251.336" x="452.273" y="202.296">
<feDropShadow dx="-3.6732e-05" dy="10" flood-color="#000000" flood-opacity="0.333" height="377.102" stdDeviation="5" width="251.336"/>
</filter>
</defs>
<g id="Layer-1" vectornator:layerName="Layer 1">
<g opacity="1">
<path d="M753.85 203.994L798 203.994C798 186.287 782.284 165.684 765.424 153.465C765.823 143.632 765.273 133.708 763.591 123.764C752.599 58.8633 696.595 8.36491 627.388 0.970187C550.371-7.27112 479.428 37.7297 458.62 107.883C458.027 109.882 456.592 114.288 453.712 121.214C441.545 150.507 423.197 177.526 399.218 201.515C397.417 203.321 389.801 211.062 385.12 215.866C368.627 222.7 353.364 232.288 340.161 244.578C288.051 293.628 209.417 424.775 164.026 524.456C147.512 549.833 133.101 572.303 122.023 589.713L3.67229 622.434C1.36395 623.066-0.210899 625.065-0.210899 627.33C-0.210899 654.491 9.10875 675.768 27.4892 690.567C51.7483 710.11 86.3195 714.026 110.18 714.026C125.335 714.026 136.165 712.446 137.265 712.272C138.807 712.048 140.166 711.191 140.986 709.936L185.222 642.578L401.548 642.578L418.936 700.135C410.156 702.501 405.28 704.653 404.86 704.847C399.553 707.356 397.417 713.435 400.038 718.463C402.67 723.502 409.131 725.572 414.449 723.125C414.643 723.033 434.857 713.976 474.401 713.976C513.945 713.976 534.159 723.033 534.299 723.104C535.842 723.828 537.492 724.175 539.11 724.175C543.069 724.175 546.876 722.115 548.775 718.535C551.439 713.496 549.282 707.366 543.953 704.847C542.972 704.398 519.575 693.576 474.401 693.576C460.95 693.576 449.678 694.586 440.099 695.943L423.984 642.578L447.057 642.578C460.583 642.578 474.002 641.619 487.259 639.896L494.141 659.428C485.565 661.764 480.787 663.865 480.366 664.059C475.059 666.568 472.923 672.647 475.544 677.675C478.176 682.714 484.638 684.794 489.955 682.336C490.149 682.234 510.364 673.177 549.907 673.177C589.451 673.177 609.665 682.234 609.806 682.306C611.348 683.03 612.998 683.377 614.616 683.377C618.575 683.377 622.383 681.316 624.281 677.736C626.946 672.698 624.788 666.568 619.46 664.048C618.478 663.599 595.082 652.778 549.907 652.778C536.349 652.778 525.001 653.798 515.379 655.175L508.746 636.356C642.457 609.572 753.721 499.008 764.594 371.135C768.736 322.401 760.182 273.402 739.828 229.054C745.404 221.088 750.053 212.684 753.85 203.994ZM269.908 381.875C270.523 384.191 272.723 385.741 275.139 385.741C275.571 385.741 276.013 385.69 276.445 385.588C341.272 370.35 394.235 354.612 434.037 338.792C453.313 351.154 470.82 365.923 486.094 382.793C467.638 395.38 439.765 408.211 402.864 421.001C400.07 421.98 398.625 424.908 399.66 427.549C400.459 429.62 402.53 430.895 404.719 430.895C405.334 430.895 405.96 430.793 406.575 430.589C444.781 417.34 473.743 403.917 493.03 390.627C506.739 407.099 518.346 425.397 527.547 445.185C451.242 495.795 243.675 535.533 164.781 549.211C173.324 529.168 183.604 507.3 194.952 484.78C248.96 474.039 297.953 462.636 340.55 450.886C343.408 450.101 345.048 447.276 344.217 444.573C343.376 441.87 340.42 440.289 337.529 441.105C297.36 452.192 251.398 462.952 200.884 473.162C233.244 410.363 273.263 343.974 308.891 296.821C350.171 300.217 389.003 312.498 423.003 332.03C384.527 346.758 334.52 361.435 273.834 375.694C270.954 376.368 269.196 379.142 269.908 381.875ZM133.166 702.511C121.117 703.908 66.375 708.519 34.4573 682.775C19.4531 670.678 11.4602 653.318 10.6405 631.134L113.847 602.596C104.139 617.926 98.4868 626.993 98.3574 627.197C96.3942 630.359 96.3618 634.255 98.2926 637.437C100.223 640.62 103.783 642.578 107.655 642.578L172.526 642.578L133.166 702.511ZM743.107 369.514C731.457 506.464 595.88 622.179 447.046 622.179L126.608 622.179C135.28 608.43 149.346 586.266 166.788 559.247C268.862 541.592 488.974 497.957 549.702 441.207C589.484 403.907 603.237 349.522 585.6 299.279C584.662 296.596 581.599 295.158 578.783 296.046C575.957 296.933 574.425 299.819 575.364 302.492C591.706 349.033 578.956 399.409 542.119 433.965C540.35 435.617 538.409 437.259 536.349 438.891C496.19 354.612 413.036 297.443 316.193 287.325C327.379 273.127 338.058 260.959 347.755 251.83C373.826 227.555 408.311 214.193 444.835 214.193C481.499 214.193 516.048 227.565 542.098 251.81C544.352 253.941 546.52 256.124 548.581 258.358C550.533 260.479 553.931 260.673 556.196 258.847C558.44 256.991 558.666 253.768 556.703 251.647C554.481 249.239 552.151 246.894 549.692 244.578C521.593 218.406 484.346 203.994 444.835 203.994C437.964 203.994 431.201 204.585 424.502 205.452C445.73 182.126 462.288 156.362 473.797 128.67C476.192 122.927 478.176 117.501 479.395 113.391C497.323 52.9067 558.591 14.0461 624.961 21.247C684.579 27.6116 732.827 71.0927 742.287 126.987C743.204 132.392 743.625 137.788 743.83 143.173C742.427 142.929 741.057 142.796 739.752 142.796L739.752 142.898C739.429 142.796 738.997 142.796 738.674 142.796C729.721 142.796 722.494 149.63 722.494 158.096C722.494 159.931 722.817 161.563 723.572 163.195L722.494 163.195C710.628 163.195 700.92 172.375 700.92 183.595C700.92 194.406 709.981 203.382 721.307 203.892C721.631 203.994 722.062 203.994 722.494 203.994L730.055 203.994C726.797 210.226 723.119 216.305 718.761 222.057C716.507 225.036 716.108 228.922 717.715 232.247C738.339 274.81 747.119 322.279 743.107 369.514Z" fill="#000000" fill-rule="evenodd" opacity="1" stroke="none"/>
<path d="M636.2 91.7979C618.329 91.7979 603.841 105.498 603.841 122.397C603.841 139.296 618.329 152.996 636.2 152.996C654.072 152.996 668.56 139.296 668.56 122.397C668.56 105.498 654.072 91.7979 636.2 91.7979ZM569.431 267.517C567.802 265.161 564.48 264.488 561.967 266.028C559.475 267.558 558.763 270.72 560.381 273.076C562.668 276.411 564.782 279.808 566.713 283.286C567.673 285.03 569.55 286.019 571.491 286.019C572.344 286.019 573.196 285.826 573.994 285.428C576.626 284.112 577.64 281.032 576.248 278.543C574.177 274.779 571.901 271.107 569.431 267.517ZM361.249 444.777C361.778 444.777 362.328 444.705 362.856 444.552C370.472 442.298 377.947 440.003 385.249 437.678C388.076 436.78 389.586 433.894 388.636 431.221C387.687 428.549 384.656 427.121 381.798 428.019C374.571 430.324 367.171 432.578 359.62 434.812C356.784 435.658 355.198 438.514 356.082 441.207C356.827 443.389 358.952 444.777 361.249 444.777Z" fill="#000000" fill-rule="evenodd" opacity="1" stroke="none"/>
<path d="M300.797 300.428L654.96 300.428L654.96 471.083L300.797 471.083L300.797 300.428Z" fill="#000000" fill-rule="evenodd" filter="url(#Filter)" opacity="1" stroke="#26d566" stroke-linecap="butt" stroke-linejoin="round" stroke-width="13.7911" vectornator:shadowAngle="1.5708" vectornator:shadowColor="#000000" vectornator:shadowOffset="10" vectornator:shadowOpacity="0.333" vectornator:shadowRadius="10"/>
<path d="M753.85 203.994L798 203.994C798 186.287 782.284 165.684 765.424 153.465C765.823 143.632 765.273 133.708 763.591 123.764C752.599 58.8633 696.595 8.36491 627.388 0.970187C550.371-7.27112 479.428 37.7297 458.62 107.883C458.027 109.882 456.592 114.288 453.712 121.214C441.545 150.507 423.197 177.526 399.218 201.515C397.417 203.321 389.801 211.062 385.12 215.866C368.627 222.7 353.364 232.288 340.161 244.578C288.051 293.628 209.417 424.775 164.026 524.456C147.512 549.833 133.101 572.303 122.023 589.713L3.67229 622.434C1.36395 623.066-0.210899 625.065-0.210899 627.33C-0.210899 654.491 9.10875 675.768 27.4892 690.567C51.7483 710.11 86.3195 714.026 110.18 714.026C125.335 714.026 136.165 712.446 137.265 712.272C138.807 712.048 140.166 711.191 140.986 709.936L185.222 642.578L401.548 642.578L418.936 700.135C410.156 702.501 405.28 704.653 404.86 704.847C399.553 707.356 397.417 713.435 400.038 718.463C402.67 723.502 409.131 725.572 414.449 723.125C414.643 723.033 434.857 713.976 474.401 713.976C513.945 713.976 534.159 723.033 534.299 723.104C535.842 723.828 537.492 724.175 539.11 724.175C543.069 724.175 546.876 722.115 548.775 718.535C551.439 713.496 549.282 707.366 543.953 704.847C542.972 704.398 519.575 693.576 474.401 693.576C460.95 693.576 449.678 694.586 440.099 695.943L423.984 642.578L447.057 642.578C460.583 642.578 474.002 641.619 487.259 639.896L494.141 659.428C485.565 661.764 480.787 663.865 480.366 664.059C475.059 666.568 472.923 672.647 475.544 677.675C478.176 682.714 484.638 684.794 489.955 682.336C490.149 682.234 510.364 673.177 549.907 673.177C589.451 673.177 609.665 682.234 609.806 682.306C611.348 683.03 612.998 683.377 614.616 683.377C618.575 683.377 622.383 681.316 624.281 677.736C626.946 672.698 624.788 666.568 619.46 664.048C618.478 663.599 595.082 652.778 549.907 652.778C536.349 652.778 525.001 653.798 515.379 655.175L508.746 636.356C642.457 609.572 753.721 499.008 764.594 371.135C768.736 322.401 760.182 273.402 739.828 229.054C745.404 221.088 750.053 212.684 753.85 203.994ZM269.908 381.875C270.523 384.191 272.723 385.741 275.139 385.741C275.571 385.741 276.013 385.69 276.445 385.588C341.272 370.35 394.235 354.612 434.037 338.792C453.313 351.154 470.82 365.923 486.094 382.793C467.638 395.38 439.765 408.211 402.864 421.001C400.07 421.98 398.625 424.908 399.66 427.549C400.459 429.62 402.53 430.895 404.719 430.895C405.334 430.895 405.96 430.793 406.575 430.589C444.781 417.34 473.743 403.917 493.03 390.627C506.739 407.099 518.346 425.397 527.547 445.185C451.242 495.795 243.675 535.533 164.781 549.211C173.324 529.168 183.604 507.3 194.952 484.78C248.96 474.039 297.953 462.636 340.55 450.886C343.408 450.101 345.048 447.276 344.217 444.573C343.376 441.87 340.42 440.289 337.529 441.105C297.36 452.192 251.398 462.952 200.884 473.162C233.244 410.363 273.263 343.974 308.891 296.821C350.171 300.217 389.003 312.498 423.003 332.03C384.527 346.758 334.52 361.435 273.834 375.694C270.954 376.368 269.196 379.142 269.908 381.875ZM133.166 702.511C121.117 703.908 66.375 708.519 34.4573 682.775C19.4531 670.678 11.4602 653.318 10.6405 631.134L113.847 602.596C104.139 617.926 98.4868 626.993 98.3574 627.197C96.3942 630.359 96.3618 634.255 98.2926 637.437C100.223 640.62 103.783 642.578 107.655 642.578L172.526 642.578L133.166 702.511ZM743.107 369.514C731.457 506.464 595.88 622.179 447.046 622.179L126.608 622.179C135.28 608.43 149.346 586.266 166.788 559.247C268.862 541.592 488.974 497.957 549.702 441.207C589.484 403.907 603.237 349.522 585.6 299.279C584.662 296.596 581.599 295.158 578.783 296.046C575.957 296.933 574.425 299.819 575.364 302.492C591.706 349.033 578.956 399.409 542.119 433.965C540.35 435.617 538.409 437.259 536.349 438.891C496.19 354.612 413.036 297.443 316.193 287.325C327.379 273.127 338.058 260.959 347.755 251.83C373.826 227.555 408.311 214.193 444.835 214.193C481.499 214.193 516.048 227.565 542.098 251.81C544.352 253.941 546.52 256.124 548.581 258.358C550.533 260.479 553.931 260.673 556.196 258.847C558.44 256.991 558.666 253.768 556.703 251.647C554.481 249.239 552.151 246.894 549.692 244.578C521.593 218.406 484.346 203.994 444.835 203.994C437.964 203.994 431.201 204.585 424.502 205.452C445.73 182.126 462.288 156.362 473.797 128.67C476.192 122.927 478.176 117.501 479.395 113.391C497.323 52.9067 558.591 14.0461 624.961 21.247C684.579 27.6116 732.827 71.0927 742.287 126.987C743.204 132.392 743.625 137.788 743.83 143.173C742.427 142.929 741.057 142.796 739.752 142.796L739.752 142.898C739.429 142.796 738.997 142.796 738.674 142.796C729.721 142.796 722.494 149.63 722.494 158.096C722.494 159.931 722.817 161.563 723.572 163.195L722.494 163.195C710.628 163.195 700.92 172.375 700.92 183.595C700.92 194.406 709.981 203.382 721.307 203.892C721.631 203.994 722.062 203.994 722.494 203.994L730.055 203.994C726.797 210.226 723.119 216.305 718.761 222.057C716.507 225.036 716.108 228.922 717.715 232.247C738.339 274.81 747.119 322.279 743.107 369.514Z" fill="#000000" fill-rule="evenodd" opacity="1" stroke="none"/>
<path d="M636.2 91.7979C618.329 91.7979 603.841 105.498 603.841 122.397C603.841 139.296 618.329 152.996 636.2 152.996C654.072 152.996 668.56 139.296 668.56 122.397C668.56 105.498 654.072 91.7979 636.2 91.7979ZM569.431 267.517C567.802 265.161 564.48 264.488 561.967 266.028C559.475 267.558 558.763 270.72 560.381 273.076C562.668 276.411 564.782 279.808 566.713 283.286C567.673 285.03 569.55 286.019 571.491 286.019C572.344 286.019 573.196 285.826 573.994 285.428C576.626 284.112 577.64 281.032 576.248 278.543C574.177 274.779 571.901 271.107 569.431 267.517ZM361.249 444.777C361.778 444.777 362.328 444.705 362.856 444.552C370.472 442.298 377.947 440.003 385.249 437.678C388.076 436.78 389.586 433.894 388.636 431.221C387.687 428.549 384.656 427.121 381.798 428.019C374.571 430.324 367.171 432.578 359.62 434.812C356.784 435.658 355.198 438.514 356.082 441.207C356.827 443.389 358.952 444.777 361.249 444.777Z" fill="#000000" fill-rule="evenodd" opacity="1" stroke="none"/>
<path d="M397.401 441.49C397.401 443.836 396.636 445.901 395.106 447.686C393.576 449.471 391.638 450.313 389.292 450.211C387.66 450.109 383.682 448.145 377.358 444.32C371.034 440.495 367.821 437.869 367.719 436.441C367.719 435.829 367.872 434.987 368.178 433.916C368.484 432.845 368.637 432.055 368.637 431.545L368.637 373.711C368.637 371.569 366.342 370.039 361.752 369.121C356.652 367.999 353.745 366.469 353.031 364.531C352.623 363.511 352.419 362.542 352.419 361.624C352.419 359.686 353.541 357.34 355.785 354.586C358.845 350.812 360.681 348.364 361.293 347.242C362.517 343.672 363.741 340.102 364.965 336.532C366.699 332.452 369.708 330.412 373.992 330.412C378.378 330.412 382.764 331.585 387.15 333.931C392.046 336.685 394.494 339.745 394.494 343.111L394.494 434.452C394.494 435.37 394.979 436.517 395.948 437.894C396.917 439.271 397.401 440.47 397.401 441.49Z" fill="#fdfdfd" fill-rule="evenodd" filter="url(#Filter_2)" opacity="1" stroke="none" vectornator:shadowAngle="1.5708" vectornator:shadowColor="#000000" vectornator:shadowOffset="10" vectornator:shadowOpacity="0.333" vectornator:shadowRadius="10"/>
<path d="M507.255 369.886C496.647 367.948 489.456 364.99 485.682 361.012C485.682 352.24 483.54 347.701 479.256 347.395C474.768 346.987 471.3 351.016 468.852 359.482C467.22 364.684 466.2 370.804 465.792 377.842C468.036 376.21 470.28 374.629 472.524 373.099C475.176 371.263 477.777 370.243 480.327 370.039C483.693 369.835 487.008 370.294 490.272 371.416C493.332 372.946 496.392 374.374 499.452 375.7C502.206 376.924 504.909 378.148 507.561 379.372C510.213 380.8 512.253 382.534 513.681 384.574C516.231 388.348 517.506 393.346 517.506 399.568C517.506 411.094 513.987 422.263 506.949 433.075C499.503 444.703 490.884 450.517 481.092 450.517C474.972 450.517 468.087 448.273 460.437 443.785C452.787 439.297 447.891 434.452 445.749 429.25C441.159 418.234 438.864 404.668 438.864 388.552C438.864 374.884 440.649 362.899 444.219 352.597C448.095 341.071 453.654 333.625 460.896 330.259C462.528 329.545 464.466 329.188 466.71 329.188C471.096 329.188 477.471 330.973 485.835 334.543C494.709 338.419 500.931 341.53 504.501 343.876C510.315 347.854 513.426 352.138 513.834 356.728C514.65 358.972 515.058 360.961 515.058 362.695C515.058 364.531 514.242 366.29 512.61 367.973C510.978 369.656 509.193 370.294 507.255 369.886ZM490.272 388.246C474.972 394.978 467.322 405.127 467.322 418.693C467.322 422.773 468.138 426.904 469.77 431.086C477.216 429.658 483.183 423.895 487.671 413.797C490.017 408.493 491.19 402.985 491.19 397.273C491.19 394.315 490.884 391.306 490.272 388.246Z" fill="#fdfdfd" fill-rule="evenodd" filter="url(#Filter_3)" opacity="1" stroke="none" vectornator:shadowAngle="1.5708" vectornator:shadowColor="#000000" vectornator:shadowOffset="10" vectornator:shadowOpacity="0.333" vectornator:shadowRadius="10"/>
<path d="M600.585 336.685C605.583 337.705 609.561 342.499 612.519 351.067C615.171 359.023 616.497 368.917 616.497 380.749C616.497 394.519 614.406 408.136 610.224 421.6C604.206 440.776 595.434 450.364 583.908 450.364C582.072 450.364 579.828 449.956 577.176 449.14C572.892 447.61 570.546 446.845 570.138 446.845C567.384 445.825 562.845 444.295 556.521 442.255C551.421 440.725 547.239 434.197 543.975 422.671C540.915 411.961 539.385 399.721 539.385 385.951C539.385 372.283 540.966 360.604 544.128 350.914C547.596 340.102 552.645 333.625 559.275 331.483C559.683 331.381 560.091 331.33 560.499 331.33C561.213 331.33 562.08 331.61 563.1 332.171C564.12 332.732 564.885 332.911 565.395 332.707C568.353 331.789 571.413 331.33 574.575 331.33C578.145 331.33 582.531 332.044 587.733 333.472C595.383 335.512 599.667 336.583 600.585 336.685ZM581.307 345.559C576.411 345.559 572.586 350.506 569.832 360.4C567.69 368.458 566.619 377.791 566.619 388.399C566.619 396.865 567.69 405.968 569.832 415.709C571.974 425.45 574.065 430.321 576.105 430.321C580.083 430.321 583.347 424.711 585.897 413.491C588.039 403.597 589.11 392.122 589.11 379.066C589.11 369.478 588.498 361.675 587.274 355.657C585.846 348.925 583.857 345.559 581.307 345.559Z" fill="#fdfdfd" fill-rule="evenodd" filter="url(#Filter_4)" opacity="1" stroke="none" vectornator:shadowAngle="1.5708" vectornator:shadowColor="#000000" vectornator:shadowOffset="10" vectornator:shadowOpacity="0.333" vectornator:shadowRadius="10"/>
</g>
</g>
</svg>
