<?xml version="1.0" encoding="UTF-8" standalone="no"?> <!-- Created with Vectornator (http://vectornator.io/) --><!DOCTYPE svg PUBLIC "-//W3C//DTD SVG 1.1//EN" "http://www.w3.org/Graphics/SVG/1.1/DTD/svg11.dtd">
<svg height="100%" stroke-miterlimit="10" style="fill-rule:nonzero;clip-rule:evenodd;stroke-linecap:round;stroke-linejoin:round;" version="1.1" viewBox="0 0 798 724" width="100%" xml:space="preserve" xmlns="http://www.w3.org/2000/svg" xmlns:vectornator="http://vectornator.io" xmlns:xlink="http://www.w3.org/1999/xlink">
<metadata>
<vectornator:setting key="IsTimeLapseWatermarkDisabled" value="false"/>
<vectornator:setting key="UndoHistoryDisabled" value="true"/>
<vectornator:setting key="VNDimensionsVisible" value="true"/>
<vectornator:setting key="VNSnapToGuides" value="true"/>
<vectornator:setting key="WDCMYKEnabledKey" value="false"/>
<vectornator:setting key="WDDisplayWhiteBackground" value="false"/>
<vectornator:setting key="WDDynamicGuides" value="true"/>
<vectornator:setting key="WDGuidesVisible" value="true"/>
<vectornator:setting key="WDIsolateActiveLayer" value="false"/>
<vectornator:setting key="WDOutlineMode" value="false"/>
<vectornator:setting key="WDRulersVisible" value="true"/>
<vectornator:setting key="WDSnapToEdges" value="true"/>
<vectornator:setting key="WDSnapToGrid" value="false"/>
<vectornator:setting key="WDSnapToPoints" value="false"/>
<vectornator:setting key="WDUnits" value="Pixels"/>
</metadata>
<defs>
<filter color-interpolation-filters="sRGB" filterUnits="userSpaceOnUse" height="531.965" id="Filter" width="1082.49" x="0" y="119.773">
<feDropShadow dx="-3.6732e-05" dy="10" flood-color="#000000" flood-opacity="0.333" height="531.965" stdDeviation="5" width="1082.49"/>
</filter>
<clipPath id="TextBounds">
<rect height="184.221" width="336.971" x="426.335" y="281.004"/>
</clipPath>
<filter color-interpolation-filters="sRGB" filterUnits="userSpaceOnUse" height="572.664" id="Filter_2" width="1030.91" x="79.3638" y="86.7822">
<feDropShadow dx="-3.6732e-05" dy="10" flood-color="#000000" flood-opacity="0.333" height="572.664" stdDeviation="5" width="1030.91"/>
</filter>
</defs>
<g id="Layer-1" vectornator:layerName="Layer 1">
<g opacity="1">
<path d="M755.85 203.994L800 203.994C800 186.287 784.284 165.684 767.424 153.465C767.823 143.632 767.273 133.708 765.591 123.764C754.599 58.8633 698.595 8.36491 629.388 0.970187C552.371-7.27112 481.428 37.7297 460.62 107.883C460.027 109.882 458.592 114.288 455.712 121.214C443.545 150.507 425.197 177.526 401.218 201.515C399.417 203.321 391.801 211.062 387.12 215.866C370.627 222.7 355.364 232.288 342.161 244.578C290.051 293.628 211.417 424.775 166.026 524.456C149.512 549.833 135.101 572.303 124.023 589.713L5.67229 622.434C3.36395 623.066 1.7891 625.065 1.7891 627.33C1.7891 654.491 11.1088 675.768 29.4892 690.567C53.7483 710.11 88.3195 714.026 112.18 714.026C127.335 714.026 138.165 712.446 139.265 712.272C140.807 712.048 142.166 711.191 142.986 709.936L187.222 642.578L403.548 642.578L420.936 700.135C412.156 702.501 407.28 704.653 406.86 704.847C401.553 707.356 399.417 713.435 402.038 718.463C404.67 723.502 411.131 725.572 416.449 723.125C416.643 723.033 436.857 713.976 476.401 713.976C515.945 713.976 536.159 723.033 536.299 723.104C537.842 723.828 539.492 724.175 541.11 724.175C545.069 724.175 548.876 722.115 550.775 718.535C553.439 713.496 551.282 707.366 545.953 704.847C544.972 704.398 521.575 693.576 476.401 693.576C462.95 693.576 451.678 694.586 442.099 695.943L425.984 642.578L449.057 642.578C462.583 642.578 476.002 641.619 489.259 639.896L496.141 659.428C487.565 661.764 482.787 663.865 482.366 664.059C477.059 666.568 474.923 672.647 477.544 677.675C480.176 682.714 486.638 684.794 491.955 682.336C492.149 682.234 512.364 673.177 551.907 673.177C591.451 673.177 611.665 682.234 611.806 682.306C613.348 683.03 614.998 683.377 616.616 683.377C620.575 683.377 624.383 681.316 626.281 677.736C628.946 672.698 626.788 666.568 621.46 664.048C620.478 663.599 597.082 652.778 551.907 652.778C538.349 652.778 527.001 653.798 517.379 655.175L510.746 636.356C644.457 609.572 755.721 499.008 766.594 371.135C770.736 322.401 762.182 273.402 741.828 229.054C747.404 221.088 752.053 212.684 755.85 203.994ZM271.908 381.875C272.523 384.191 274.723 385.741 277.139 385.741C277.571 385.741 278.013 385.69 278.445 385.588C343.272 370.35 396.235 354.612 436.037 338.792C455.313 351.154 472.82 365.923 488.094 382.793C469.638 395.38 441.765 408.211 404.864 421.001C402.07 421.98 400.625 424.908 401.66 427.549C402.459 429.62 404.53 430.895 406.719 430.895C407.334 430.895 407.96 430.793 408.575 430.589C446.781 417.34 475.743 403.917 495.03 390.627C508.739 407.099 520.346 425.397 529.547 445.185C453.242 495.795 245.675 535.533 166.781 549.211C175.324 529.168 185.604 507.3 196.952 484.78C250.96 474.039 299.953 462.636 342.55 450.886C345.408 450.101 347.048 447.276 346.217 444.573C345.376 441.87 342.42 440.289 339.529 441.105C299.36 452.192 253.398 462.952 202.884 473.162C235.244 410.363 275.263 343.974 310.891 296.821C352.171 300.217 391.003 312.498 425.003 332.03C386.527 346.758 336.52 361.435 275.834 375.694C272.954 376.368 271.196 379.142 271.908 381.875ZM135.166 702.511C123.117 703.908 68.375 708.519 36.4573 682.775C21.4531 670.678 13.4602 653.318 12.6405 631.134L115.847 602.596C106.139 617.926 100.487 626.993 100.357 627.197C98.3942 630.359 98.3618 634.255 100.293 637.437C102.223 640.62 105.783 642.578 109.655 642.578L174.526 642.578L135.166 702.511ZM745.107 369.514C733.457 506.464 597.88 622.179 449.046 622.179L128.608 622.179C137.28 608.43 151.346 586.266 168.788 559.247C270.862 541.592 490.974 497.957 551.702 441.207C591.484 403.907 605.237 349.522 587.6 299.279C586.662 296.596 583.599 295.158 580.783 296.046C577.957 296.933 576.425 299.819 577.364 302.492C593.706 349.033 580.956 399.409 544.119 433.965C542.35 435.617 540.409 437.259 538.349 438.891C498.19 354.612 415.036 297.443 318.193 287.325C329.379 273.127 340.058 260.959 349.755 251.83C375.826 227.555 410.311 214.193 446.835 214.193C483.499 214.193 518.048 227.565 544.098 251.81C546.352 253.941 548.52 256.124 550.581 258.358C552.533 260.479 555.931 260.673 558.196 258.847C560.44 256.991 560.666 253.768 558.703 251.647C556.481 249.239 554.151 246.894 551.692 244.578C523.593 218.406 486.346 203.994 446.835 203.994C439.964 203.994 433.201 204.585 426.502 205.452C447.73 182.126 464.288 156.362 475.797 128.67C478.192 122.927 480.176 117.501 481.395 113.391C499.323 52.9067 560.591 14.0461 626.961 21.247C686.579 27.6116 734.827 71.0927 744.287 126.987C745.204 132.392 745.625 137.788 745.83 143.173C744.427 142.929 743.057 142.796 741.752 142.796L741.752 142.898C741.429 142.796 740.997 142.796 740.674 142.796C731.721 142.796 724.494 149.63 724.494 158.096C724.494 159.931 724.817 161.563 725.572 163.195L724.494 163.195C712.628 163.195 702.92 172.375 702.92 183.595C702.92 194.406 711.981 203.382 723.307 203.892C723.631 203.994 724.062 203.994 724.494 203.994L732.055 203.994C728.797 210.226 725.119 216.305 720.761 222.057C718.507 225.036 718.108 228.922 719.715 232.247C740.339 274.81 749.119 322.279 745.107 369.514Z" fill="#000000" fill-rule="evenodd" opacity="1" stroke="none"/>
<path d="M638.2 91.7979C620.329 91.7979 605.841 105.498 605.841 122.397C605.841 139.296 620.329 152.996 638.2 152.996C656.072 152.996 670.56 139.296 670.56 122.397C670.56 105.498 656.072 91.7979 638.2 91.7979ZM571.431 267.517C569.802 265.161 566.48 264.488 563.967 266.028C561.475 267.558 560.763 270.72 562.381 273.076C564.668 276.411 566.782 279.808 568.713 283.286C569.673 285.03 571.55 286.019 573.491 286.019C574.344 286.019 575.196 285.826 575.994 285.428C578.626 284.112 579.64 281.032 578.248 278.543C576.177 274.779 573.901 271.107 571.431 267.517ZM363.249 444.777C363.778 444.777 364.328 444.705 364.856 444.552C372.472 442.298 379.947 440.003 387.249 437.678C390.076 436.78 391.586 433.894 390.636 431.221C389.687 428.549 386.656 427.121 383.798 428.019C376.571 430.324 369.171 432.578 361.62 434.812C358.784 435.658 357.198 438.514 358.082 441.207C358.827 443.389 360.952 444.777 363.249 444.777Z" fill="#000000" fill-rule="evenodd" opacity="1" stroke="none"/>
<path d="M302.797 300.428L656.96 300.428L656.96 471.083L302.797 471.083L302.797 300.428Z" fill="#000000" fill-rule="evenodd" filter="url(#Filter)" opacity="1" stroke="#26d566" stroke-linecap="butt" stroke-linejoin="round" stroke-width="13.7911" vectornator:shadowAngle="1.5708" vectornator:shadowColor="#000000" vectornator:shadowOffset="10" vectornator:shadowOpacity="0.333" vectornator:shadowRadius="10"/>
<path d="M755.85 203.994L800 203.994C800 186.287 784.284 165.684 767.424 153.465C767.823 143.632 767.273 133.708 765.591 123.764C754.599 58.8633 698.595 8.36491 629.388 0.970187C552.371-7.27112 481.428 37.7297 460.62 107.883C460.027 109.882 458.592 114.288 455.712 121.214C443.545 150.507 425.197 177.526 401.218 201.515C399.417 203.321 391.801 211.062 387.12 215.866C370.627 222.7 355.364 232.288 342.161 244.578C290.051 293.628 211.417 424.775 166.026 524.456C149.512 549.833 135.101 572.303 124.023 589.713L5.67229 622.434C3.36395 623.066 1.7891 625.065 1.7891 627.33C1.7891 654.491 11.1088 675.768 29.4892 690.567C53.7483 710.11 88.3195 714.026 112.18 714.026C127.335 714.026 138.165 712.446 139.265 712.272C140.807 712.048 142.166 711.191 142.986 709.936L187.222 642.578L403.548 642.578L420.936 700.135C412.156 702.501 407.28 704.653 406.86 704.847C401.553 707.356 399.417 713.435 402.038 718.463C404.67 723.502 411.131 725.572 416.449 723.125C416.643 723.033 436.857 713.976 476.401 713.976C515.945 713.976 536.159 723.033 536.299 723.104C537.842 723.828 539.492 724.175 541.11 724.175C545.069 724.175 548.876 722.115 550.775 718.535C553.439 713.496 551.282 707.366 545.953 704.847C544.972 704.398 521.575 693.576 476.401 693.576C462.95 693.576 451.678 694.586 442.099 695.943L425.984 642.578L449.057 642.578C462.583 642.578 476.002 641.619 489.259 639.896L496.141 659.428C487.565 661.764 482.787 663.865 482.366 664.059C477.059 666.568 474.923 672.647 477.544 677.675C480.176 682.714 486.638 684.794 491.955 682.336C492.149 682.234 512.364 673.177 551.907 673.177C591.451 673.177 611.665 682.234 611.806 682.306C613.348 683.03 614.998 683.377 616.616 683.377C620.575 683.377 624.383 681.316 626.281 677.736C628.946 672.698 626.788 666.568 621.46 664.048C620.478 663.599 597.082 652.778 551.907 652.778C538.349 652.778 527.001 653.798 517.379 655.175L510.746 636.356C644.457 609.572 755.721 499.008 766.594 371.135C770.736 322.401 762.182 273.402 741.828 229.054C747.404 221.088 752.053 212.684 755.85 203.994ZM271.908 381.875C272.523 384.191 274.723 385.741 277.139 385.741C277.571 385.741 278.013 385.69 278.445 385.588C343.272 370.35 396.235 354.612 436.037 338.792C455.313 351.154 472.82 365.923 488.094 382.793C469.638 395.38 441.765 408.211 404.864 421.001C402.07 421.98 400.625 424.908 401.66 427.549C402.459 429.62 404.53 430.895 406.719 430.895C407.334 430.895 407.96 430.793 408.575 430.589C446.781 417.34 475.743 403.917 495.03 390.627C508.739 407.099 520.346 425.397 529.547 445.185C453.242 495.795 245.675 535.533 166.781 549.211C175.324 529.168 185.604 507.3 196.952 484.78C250.96 474.039 299.953 462.636 342.55 450.886C345.408 450.101 347.048 447.276 346.217 444.573C345.376 441.87 342.42 440.289 339.529 441.105C299.36 452.192 253.398 462.952 202.884 473.162C235.244 410.363 275.263 343.974 310.891 296.821C352.171 300.217 391.003 312.498 425.003 332.03C386.527 346.758 336.52 361.435 275.834 375.694C272.954 376.368 271.196 379.142 271.908 381.875ZM135.166 702.511C123.117 703.908 68.375 708.519 36.4573 682.775C21.4531 670.678 13.4602 653.318 12.6405 631.134L115.847 602.596C106.139 617.926 100.487 626.993 100.357 627.197C98.3942 630.359 98.3618 634.255 100.293 637.437C102.223 640.62 105.783 642.578 109.655 642.578L174.526 642.578L135.166 702.511ZM745.107 369.514C733.457 506.464 597.88 622.179 449.046 622.179L128.608 622.179C137.28 608.43 151.346 586.266 168.788 559.247C270.862 541.592 490.974 497.957 551.702 441.207C591.484 403.907 605.237 349.522 587.6 299.279C586.662 296.596 583.599 295.158 580.783 296.046C577.957 296.933 576.425 299.819 577.364 302.492C593.706 349.033 580.956 399.409 544.119 433.965C542.35 435.617 540.409 437.259 538.349 438.891C498.19 354.612 415.036 297.443 318.193 287.325C329.379 273.127 340.058 260.959 349.755 251.83C375.826 227.555 410.311 214.193 446.835 214.193C483.499 214.193 518.048 227.565 544.098 251.81C546.352 253.941 548.52 256.124 550.581 258.358C552.533 260.479 555.931 260.673 558.196 258.847C560.44 256.991 560.666 253.768 558.703 251.647C556.481 249.239 554.151 246.894 551.692 244.578C523.593 218.406 486.346 203.994 446.835 203.994C439.964 203.994 433.201 204.585 426.502 205.452C447.73 182.126 464.288 156.362 475.797 128.67C478.192 122.927 480.176 117.501 481.395 113.391C499.323 52.9067 560.591 14.0461 626.961 21.247C686.579 27.6116 734.827 71.0927 744.287 126.987C745.204 132.392 745.625 137.788 745.83 143.173C744.427 142.929 743.057 142.796 741.752 142.796L741.752 142.898C741.429 142.796 740.997 142.796 740.674 142.796C731.721 142.796 724.494 149.63 724.494 158.096C724.494 159.931 724.817 161.563 725.572 163.195L724.494 163.195C712.628 163.195 702.92 172.375 702.92 183.595C702.92 194.406 711.981 203.382 723.307 203.892C723.631 203.994 724.062 203.994 724.494 203.994L732.055 203.994C728.797 210.226 725.119 216.305 720.761 222.057C718.507 225.036 718.108 228.922 719.715 232.247C740.339 274.81 749.119 322.279 745.107 369.514Z" fill="#000000" fill-rule="evenodd" opacity="1" stroke="none"/>
<path d="M638.2 91.7979C620.329 91.7979 605.841 105.498 605.841 122.397C605.841 139.296 620.329 152.996 638.2 152.996C656.072 152.996 670.56 139.296 670.56 122.397C670.56 105.498 656.072 91.7979 638.2 91.7979ZM571.431 267.517C569.802 265.161 566.48 264.488 563.967 266.028C561.475 267.558 560.763 270.72 562.381 273.076C564.668 276.411 566.782 279.808 568.713 283.286C569.673 285.03 571.55 286.019 573.491 286.019C574.344 286.019 575.196 285.826 575.994 285.428C578.626 284.112 579.64 281.032 578.248 278.543C576.177 274.779 573.901 271.107 571.431 267.517ZM363.249 444.777C363.778 444.777 364.328 444.705 364.856 444.552C372.472 442.298 379.947 440.003 387.249 437.678C390.076 436.78 391.586 433.894 390.636 431.221C389.687 428.549 386.656 427.121 383.798 428.019C376.571 430.324 369.171 432.578 361.62 434.812C358.784 435.658 357.198 438.514 358.082 441.207C358.827 443.389 360.952 444.777 363.249 444.777Z" fill="#000000" fill-rule="evenodd" opacity="1" stroke="none"/>
<path clip-path="url(#TextBounds)" d="M512.903 356.586C512.189 363.012 507.548 370.713 498.98 379.689C509.282 387.543 514.433 396.468 514.433 406.464C514.433 416.664 509.384 426.507 499.286 435.993C490.106 444.459 481.487 448.896 473.429 449.304C470.165 449.508 463.484 445.938 453.386 438.594C443.594 431.454 438.647 426.966 438.545 425.13C438.443 422.988 439.565 421.05 441.911 419.316C444.257 417.582 446.501 416.766 448.643 416.868C450.071 416.97 452.366 418.678 455.528 421.993C458.69 425.308 461.597 427.17 464.249 427.578C468.431 428.394 474.092 424.62 481.232 416.256C488.066 408.198 491.483 402.231 491.483 398.355C491.483 396.723 490.31 395.907 487.964 395.907C486.332 395.907 484.394 396.672 482.15 398.202C480.518 399.222 478.912 400.242 477.331 401.262C475.75 402.282 474.194 402.69 472.664 402.486C470.93 402.384 468.151 400.956 464.326 398.202C460.501 395.448 457.364 392.592 454.916 389.634C454.406 389.022 454.151 388.257 454.151 387.339C454.151 384.789 455.528 382.953 458.282 381.831C462.158 380.301 466.85 377.037 472.358 372.039C480.314 364.593 485.261 356.688 487.199 348.324C483.119 349.14 478.58 352.557 473.582 358.575C468.584 364.593 465.473 367.755 464.249 368.061C462.311 368.775 458.614 367.704 453.157 364.848C447.7 361.992 444.155 359.442 442.523 357.198C442.217 356.892 442.064 356.433 442.064 355.821C442.064 354.393 443.441 352.302 446.195 349.548C454.661 340.98 460.475 335.523 463.637 333.177C470.267 328.077 476.591 325.68 482.609 325.986C489.341 326.394 496.252 330.117 503.341 337.155C510.43 344.193 513.617 350.67 512.903 356.586Z" fill="#fdfdfd" fill-rule="evenodd" filter="url(#Filter_2)" opacity="1" stroke="none" vectornator:shadowAngle="1.5708" vectornator:shadowColor="#000000" vectornator:shadowOffset="10" vectornator:shadowOpacity="0.333" vectornator:shadowRadius="10"/>
</g>
</g>
</svg>
