<?xml version="1.0" encoding="UTF-8" standalone="no"?> <!-- Created with Vectornator (http://vectornator.io/) --><!DOCTYPE svg PUBLIC "-//W3C//DTD SVG 1.1//EN" "http://www.w3.org/Graphics/SVG/1.1/DTD/svg11.dtd">
<svg height="100%" stroke-miterlimit="10" style="fill-rule:nonzero;clip-rule:evenodd;stroke-linecap:round;stroke-linejoin:round;" version="1.1" viewBox="0 0 798 724" width="100%" xml:space="preserve" xmlns="http://www.w3.org/2000/svg" xmlns:vectornator="http://vectornator.io" xmlns:xlink="http://www.w3.org/1999/xlink">
<metadata>
<vectornator:setting key="IsTimeLapseWatermarkDisabled" value="false"/>
<vectornator:setting key="UndoHistoryDisabled" value="true"/>
<vectornator:setting key="VNDimensionsVisible" value="true"/>
<vectornator:setting key="VNSnapToGuides" value="false"/>
<vectornator:setting key="WDCMYKEnabledKey" value="false"/>
<vectornator:setting key="WDDisplayWhiteBackground" value="false"/>
<vectornator:setting key="WDDynamicGuides" value="true"/>
<vectornator:setting key="WDGuidesVisible" value="true"/>
<vectornator:setting key="WDIsolateActiveLayer" value="false"/>
<vectornator:setting key="WDOutlineMode" value="false"/>
<vectornator:setting key="WDRulersVisible" value="true"/>
<vectornator:setting key="WDSnapToEdges" value="true"/>
<vectornator:setting key="WDSnapToGrid" value="false"/>
<vectornator:setting key="WDSnapToPoints" value="false"/>
<vectornator:setting key="WDUnits" value="Pixels"/>
</metadata>
<defs>
<filter color-interpolation-filters="sRGB" filterUnits="userSpaceOnUse" height="531.965" id="Filter" width="1082.49" x="0" y="119.598">
<feDropShadow dx="-3.6732e-05" dy="10" flood-color="#000000" flood-opacity="0.333" height="531.965" stdDeviation="5" width="1082.49"/>
</filter>
<clipPath id="TextBounds">
<rect height="184.221" width="227.161" x="367.726" y="275.663"/>
</clipPath>
<filter color-interpolation-filters="sRGB" filterUnits="userSpaceOnUse" height="572.664" id="Filter_2" width="701.484" x="130.565" y="81.4416">
<feDropShadow dx="-3.6732e-05" dy="10" flood-color="#000000" flood-opacity="0.333" height="572.664" stdDeviation="5" width="701.484"/>
</filter>
<clipPath id="TextBounds_2">
<rect height="3" width="35.3" x="839.058" y="650.512"/>
</clipPath>
<filter color-interpolation-filters="sRGB" filterUnits="userSpaceOnUse" height="29" id="Filter_3" width="125.9" x="793.758" y="637.512">
<feDropShadow dx="-3.6732e-05" dy="10" flood-color="#000000" flood-opacity="0.333" height="29" stdDeviation="5" width="125.9"/>
</filter>
</defs>
<g id="Layer-1" vectornator:layerName="Layer 1">
<g opacity="1">
<path d="M754.061 203.819L798.211 203.819C798.211 186.112 782.495 165.509 765.635 153.29C766.034 143.457 765.484 133.533 763.802 123.588C752.81 58.6882 696.806 8.18977 627.599 0.795043C550.582-7.44626 479.638 37.5545 458.831 107.708C458.238 109.707 456.803 114.113 453.923 121.039C441.756 150.332 423.408 177.351 399.429 201.34C397.628 203.146 390.012 210.887 385.331 215.691C368.838 222.525 353.575 232.113 340.372 244.403C288.262 293.453 209.627 424.6 164.237 524.281C147.723 549.658 133.312 572.127 122.234 589.538L3.88318 622.259C1.57485 622.891 0 624.89 0 627.154C0 654.316 9.31965 675.593 27.7001 690.392C51.9592 709.935 86.5304 713.851 110.39 713.851C125.546 713.851 136.375 712.27 137.476 712.097C139.018 711.873 140.377 711.016 141.197 709.761L185.433 642.403L401.759 642.403L419.147 699.959C410.367 702.326 405.491 704.478 405.07 704.672C399.763 707.181 397.628 713.26 400.249 718.288C402.881 723.327 409.342 725.397 414.66 722.949C414.854 722.858 435.068 713.8 474.612 713.8C514.156 713.8 534.37 722.858 534.51 722.929C536.053 723.653 537.703 724 539.321 724C543.28 724 547.087 721.94 548.986 718.36C551.65 713.321 549.493 707.191 544.164 704.672C543.183 704.223 519.786 693.401 474.612 693.401C461.161 693.401 449.889 694.411 440.31 695.767L424.195 642.403L447.268 642.403C460.794 642.403 474.213 641.444 487.47 639.72L494.351 659.253C485.776 661.588 480.998 663.69 480.577 663.883C475.27 666.392 473.134 672.471 475.755 677.5C478.387 682.538 484.848 684.619 490.166 682.161C490.36 682.059 510.575 673.002 550.118 673.002C589.662 673.002 609.876 682.059 610.016 682.131C611.559 682.855 613.209 683.201 614.827 683.201C618.786 683.201 622.594 681.141 624.492 677.561C627.156 672.522 624.999 666.392 619.671 663.873C618.689 663.424 595.293 652.603 550.118 652.603C536.56 652.603 525.212 653.623 515.59 654.999L508.957 636.181C642.668 609.397 753.932 498.833 764.805 370.96C768.947 322.226 760.393 273.227 740.039 228.879C745.615 220.913 750.264 212.509 754.061 203.819ZM270.119 381.7C270.734 384.016 272.934 385.566 275.35 385.566C275.782 385.566 276.224 385.515 276.656 385.413C341.483 370.175 394.446 354.437 434.248 338.617C453.524 350.979 471.031 365.748 486.305 382.618C467.849 395.205 439.976 408.036 403.075 420.826C400.281 421.805 398.836 424.733 399.871 427.374C400.67 429.445 402.741 430.72 404.93 430.72C405.545 430.72 406.171 430.618 406.786 430.414C444.992 417.164 473.954 403.742 493.24 390.452C506.95 406.924 518.557 425.222 527.758 445.009C451.453 495.62 243.886 535.358 164.992 549.035C173.535 528.993 183.815 507.125 195.163 484.604C249.171 473.864 298.164 462.461 340.761 450.711C343.619 449.926 345.259 447.1 344.428 444.397C343.587 441.695 340.631 440.114 337.74 440.93C297.571 452.017 251.609 462.777 201.095 472.987C233.455 410.188 273.474 343.798 309.102 296.646C350.382 300.042 389.214 312.322 423.214 331.855C384.738 346.583 334.731 361.26 274.045 375.519C271.165 376.193 269.407 378.967 270.119 381.7ZM133.377 702.336C121.328 703.733 66.5859 708.344 34.6682 682.6C19.664 670.503 11.6711 653.143 10.8514 630.959L114.058 602.42C104.35 617.75 98.6977 626.818 98.5683 627.022C96.6051 630.184 96.5727 634.08 98.5035 637.262C100.434 640.445 103.994 642.403 107.866 642.403L172.737 642.403L133.377 702.336ZM743.318 369.338C731.668 506.289 596.091 622.004 447.257 622.004L126.818 622.004C135.491 608.255 149.557 586.091 166.999 559.072C269.073 541.416 489.185 497.782 549.913 441.032C589.694 403.732 603.447 349.347 585.811 299.104C584.873 296.421 581.809 294.983 578.994 295.87C576.168 296.758 574.636 299.644 575.575 302.317C591.917 348.858 579.167 399.233 542.33 433.79C540.561 435.442 538.62 437.084 536.56 438.716C496.401 354.437 413.247 297.268 316.404 287.15C327.59 272.952 338.269 260.784 347.966 251.655C374.037 227.38 408.522 214.018 445.046 214.018C481.709 214.018 516.259 227.39 542.309 251.635C544.563 253.766 546.731 255.949 548.792 258.183C550.744 260.304 554.142 260.498 556.407 258.672C558.651 256.816 558.877 253.593 556.914 251.471C554.692 249.064 552.362 246.718 549.903 244.403C521.803 218.231 484.557 203.819 445.046 203.819C438.175 203.819 431.411 204.41 424.713 205.277C445.941 181.951 462.498 156.186 474.008 128.494C476.402 122.752 478.387 117.326 479.606 113.215C497.533 52.7316 558.802 13.871 625.172 21.0719C684.789 27.4365 733.038 70.9175 742.498 126.811C743.415 132.217 743.835 137.613 744.04 142.998C742.638 142.754 741.268 142.621 739.963 142.621L739.963 142.723C739.639 142.621 739.208 142.621 738.884 142.621C729.932 142.621 722.704 149.455 722.704 157.92C722.704 159.756 723.028 161.388 723.783 163.02L722.704 163.02C710.839 163.02 701.131 172.2 701.131 183.419C701.131 194.231 710.192 203.207 721.518 203.717C721.842 203.819 722.273 203.819 722.704 203.819L730.266 203.819C727.008 210.051 723.33 216.13 718.972 221.882C716.718 224.861 716.319 228.747 717.926 232.072C738.55 274.635 747.33 322.104 743.318 369.338Z" fill="#000000" fill-rule="evenodd" opacity="1" stroke="none"/>
<path d="M636.411 91.6228C618.54 91.6228 604.051 105.322 604.051 122.222C604.051 139.121 618.54 152.821 636.411 152.821C654.283 152.821 668.771 139.121 668.771 122.222C668.771 105.322 654.283 91.6228 636.411 91.6228ZM569.642 267.342C568.013 264.986 564.691 264.313 562.178 265.853C559.686 267.383 558.974 270.545 560.592 272.901C562.879 276.236 564.993 279.633 566.924 283.111C567.884 284.855 569.761 285.844 571.702 285.844C572.555 285.844 573.407 285.65 574.205 285.253C576.837 283.937 577.851 280.857 576.459 278.368C574.388 274.604 572.112 270.932 569.642 267.342ZM361.46 444.601C361.989 444.601 362.539 444.53 363.067 444.377C370.683 442.123 378.158 439.828 385.46 437.502C388.286 436.605 389.797 433.718 388.847 431.046C387.898 428.374 384.867 426.946 382.009 427.843C374.782 430.149 367.382 432.403 359.831 434.636C356.994 435.483 355.409 438.339 356.293 441.032C357.038 443.214 359.163 444.601 361.46 444.601Z" fill="#000000" fill-rule="evenodd" opacity="1" stroke="none"/>
<path d="M301.008 300.253L655.171 300.253L655.171 470.908L301.008 470.908L301.008 300.253Z" fill="#000000" fill-rule="evenodd" filter="url(#Filter)" opacity="1" stroke="#26d566" stroke-linecap="butt" stroke-linejoin="round" stroke-width="13.7911" vectornator:shadowAngle="1.5708" vectornator:shadowColor="#000000" vectornator:shadowOffset="10" vectornator:shadowOpacity="0.333" vectornator:shadowRadius="10"/>
<path d="M754.061 203.819L798.211 203.819C798.211 186.112 782.495 165.509 765.635 153.29C766.034 143.457 765.484 133.533 763.802 123.588C752.81 58.6882 696.806 8.18977 627.599 0.795043C550.582-7.44626 479.638 37.5545 458.831 107.708C458.238 109.707 456.803 114.113 453.923 121.039C441.756 150.332 423.408 177.351 399.429 201.34C397.628 203.146 390.012 210.887 385.331 215.691C368.838 222.525 353.575 232.113 340.372 244.403C288.262 293.453 209.627 424.6 164.237 524.281C147.723 549.658 133.312 572.127 122.234 589.538L3.88318 622.259C1.57485 622.891 0 624.89 0 627.154C0 654.316 9.31965 675.593 27.7001 690.392C51.9592 709.935 86.5304 713.851 110.39 713.851C125.546 713.851 136.375 712.27 137.476 712.097C139.018 711.873 140.377 711.016 141.197 709.761L185.433 642.403L401.759 642.403L419.147 699.959C410.367 702.326 405.491 704.478 405.07 704.672C399.763 707.181 397.628 713.26 400.249 718.288C402.881 723.327 409.342 725.397 414.66 722.949C414.854 722.858 435.068 713.8 474.612 713.8C514.156 713.8 534.37 722.858 534.51 722.929C536.053 723.653 537.703 724 539.321 724C543.28 724 547.087 721.94 548.986 718.36C551.65 713.321 549.493 707.191 544.164 704.672C543.183 704.223 519.786 693.401 474.612 693.401C461.161 693.401 449.889 694.411 440.31 695.767L424.195 642.403L447.268 642.403C460.794 642.403 474.213 641.444 487.47 639.72L494.351 659.253C485.776 661.588 480.998 663.69 480.577 663.883C475.27 666.392 473.134 672.471 475.755 677.5C478.387 682.538 484.848 684.619 490.166 682.161C490.36 682.059 510.575 673.002 550.118 673.002C589.662 673.002 609.876 682.059 610.016 682.131C611.559 682.855 613.209 683.201 614.827 683.201C618.786 683.201 622.594 681.141 624.492 677.561C627.156 672.522 624.999 666.392 619.671 663.873C618.689 663.424 595.293 652.603 550.118 652.603C536.56 652.603 525.212 653.623 515.59 654.999L508.957 636.181C642.668 609.397 753.932 498.833 764.805 370.96C768.947 322.226 760.393 273.227 740.039 228.879C745.615 220.913 750.264 212.509 754.061 203.819ZM270.119 381.7C270.734 384.016 272.934 385.566 275.35 385.566C275.782 385.566 276.224 385.515 276.656 385.413C341.483 370.175 394.446 354.437 434.248 338.617C453.524 350.979 471.031 365.748 486.305 382.618C467.849 395.205 439.976 408.036 403.075 420.826C400.281 421.805 398.836 424.733 399.871 427.374C400.67 429.445 402.741 430.72 404.93 430.72C405.545 430.72 406.171 430.618 406.786 430.414C444.992 417.164 473.954 403.742 493.24 390.452C506.95 406.924 518.557 425.222 527.758 445.009C451.453 495.62 243.886 535.358 164.992 549.035C173.535 528.993 183.815 507.125 195.163 484.604C249.171 473.864 298.164 462.461 340.761 450.711C343.619 449.926 345.259 447.1 344.428 444.397C343.587 441.695 340.631 440.114 337.74 440.93C297.571 452.017 251.609 462.777 201.095 472.987C233.455 410.188 273.474 343.798 309.102 296.646C350.382 300.042 389.214 312.322 423.214 331.855C384.738 346.583 334.731 361.26 274.045 375.519C271.165 376.193 269.407 378.967 270.119 381.7ZM133.377 702.336C121.328 703.733 66.5859 708.344 34.6682 682.6C19.664 670.503 11.6711 653.143 10.8514 630.959L114.058 602.42C104.35 617.75 98.6977 626.818 98.5683 627.022C96.6051 630.184 96.5727 634.08 98.5035 637.262C100.434 640.445 103.994 642.403 107.866 642.403L172.737 642.403L133.377 702.336ZM743.318 369.338C731.668 506.289 596.091 622.004 447.257 622.004L126.818 622.004C135.491 608.255 149.557 586.091 166.999 559.072C269.073 541.416 489.185 497.782 549.913 441.032C589.694 403.732 603.447 349.347 585.811 299.104C584.873 296.421 581.809 294.983 578.994 295.87C576.168 296.758 574.636 299.644 575.575 302.317C591.917 348.858 579.167 399.233 542.33 433.79C540.561 435.442 538.62 437.084 536.56 438.716C496.401 354.437 413.247 297.268 316.404 287.15C327.59 272.952 338.269 260.784 347.966 251.655C374.037 227.38 408.522 214.018 445.046 214.018C481.709 214.018 516.259 227.39 542.309 251.635C544.563 253.766 546.731 255.949 548.792 258.183C550.744 260.304 554.142 260.498 556.407 258.672C558.651 256.816 558.877 253.593 556.914 251.471C554.692 249.064 552.362 246.718 549.903 244.403C521.803 218.231 484.557 203.819 445.046 203.819C438.175 203.819 431.411 204.41 424.713 205.277C445.941 181.951 462.498 156.186 474.008 128.494C476.402 122.752 478.387 117.326 479.606 113.215C497.533 52.7316 558.802 13.871 625.172 21.0719C684.789 27.4365 733.038 70.9175 742.498 126.811C743.415 132.217 743.835 137.613 744.04 142.998C742.638 142.754 741.268 142.621 739.963 142.621L739.963 142.723C739.639 142.621 739.208 142.621 738.884 142.621C729.932 142.621 722.704 149.455 722.704 157.92C722.704 159.756 723.028 161.388 723.783 163.02L722.704 163.02C710.839 163.02 701.131 172.2 701.131 183.419C701.131 194.231 710.192 203.207 721.518 203.717C721.842 203.819 722.273 203.819 722.704 203.819L730.266 203.819C727.008 210.051 723.33 216.13 718.972 221.882C716.718 224.861 716.319 228.747 717.926 232.072C738.55 274.635 747.33 322.104 743.318 369.338Z" fill="#000000" fill-rule="evenodd" opacity="1" stroke="none"/>
<path d="M636.411 91.6228C618.54 91.6228 604.051 105.322 604.051 122.222C604.051 139.121 618.54 152.821 636.411 152.821C654.283 152.821 668.771 139.121 668.771 122.222C668.771 105.322 654.283 91.6228 636.411 91.6228ZM569.642 267.342C568.013 264.986 564.691 264.313 562.178 265.853C559.686 267.383 558.974 270.545 560.592 272.901C562.879 276.236 564.993 279.633 566.924 283.111C567.884 284.855 569.761 285.844 571.702 285.844C572.555 285.844 573.407 285.65 574.205 285.253C576.837 283.937 577.851 280.857 576.459 278.368C574.388 274.604 572.112 270.932 569.642 267.342ZM361.46 444.601C361.989 444.601 362.539 444.53 363.067 444.377C370.683 442.123 378.158 439.828 385.46 437.502C388.286 436.605 389.797 433.718 388.847 431.046C387.898 428.374 384.867 426.946 382.009 427.843C374.782 430.149 367.382 432.403 359.831 434.636C356.994 435.483 355.409 438.339 356.293 441.032C357.038 443.214 359.163 444.601 361.46 444.601Z" fill="#000000" fill-rule="evenodd" opacity="1" stroke="none"/>
<g fill="#fdfdfd" filter="url(#Filter_2)" opacity="1" stroke="none" vectornator:shadowAngle="1.5708" vectornator:shadowColor="#000000" vectornator:shadowOffset="10" vectornator:shadowOpacity="0.333" vectornator:shadowRadius="10">
<path clip-path="url(#TextBounds)" d="M472.348 395.462C472.348 397.502 470.155 399.236 465.769 400.664C461.383 401.276 456.436 402.041 450.928 402.959L450.928 435.242C450.928 435.548 451.03 436.083 451.234 436.848C451.438 437.613 451.489 438.251 451.387 438.761C451.183 440.699 450.188 442.382 448.403 443.81C446.618 445.238 444.91 445.85 443.278 445.646C437.056 444.932 430.12 440.597 422.47 432.641C421.654 431.723 421.348 430.091 421.552 427.745C421.552 427.337 421.909 426.801 422.623 426.138C423.337 425.475 423.694 424.889 423.694 424.379L423.694 406.325C415.228 408.773 408.853 410.558 404.569 411.68C396.919 413.618 391.666 414.689 388.81 414.893C386.362 414.995 382.537 413.414 377.335 410.15C372.745 407.192 369.787 404.846 368.461 403.112C367.951 402.5 367.696 401.837 367.696 401.123C367.696 400.001 368.818 398.012 371.062 395.156C372.184 394.238 373.765 392.657 375.805 390.413C376.009 390.311 383.914 379.04 399.52 356.6C414.82 334.67 423.031 323.399 424.153 322.787C427.519 320.951 430.018 320.084 431.65 320.186C433.996 320.288 438.178 322.251 444.196 326.076C450.214 329.901 453.427 332.732 453.835 334.568C454.141 335.588 453.121 337.577 450.775 340.535L450.775 377.867C454.243 377.357 456.079 377.102 456.283 377.102C457.507 377.102 458.578 377.408 459.496 378.02C461.332 379.55 463.933 382.635 467.299 387.276C470.665 391.917 472.348 394.646 472.348 395.462ZM424 383.987L424 365.015L407.629 388.883L424 383.987Z" fill-rule="evenodd"/>
<path clip-path="url(#TextBounds)" d="M560.17 422.543C560.476 425.195 558.589 427.082 554.509 428.204C553.183 428 551.245 428.051 548.695 428.357C546.859 428.357 541.096 429.683 531.406 432.335C520.492 435.089 512.383 437.639 507.079 439.985C505.651 440.699 504.35 441.566 503.177 442.586C502.004 443.606 501.265 444.116 500.959 444.116C499.429 444.32 494.992 441.974 487.648 437.078C485.608 435.956 483.568 434.757 481.528 433.482C479.488 432.207 478.417 430.652 478.315 428.816C478.315 428.204 482.752 422.237 491.626 410.915C502.54 396.941 511.006 385.262 517.024 375.878C526.306 361.088 531.304 349.358 532.018 340.688C524.062 343.646 516.106 350.276 508.15 360.578C507.538 361.088 507.155 361.955 507.002 363.179C506.849 364.403 506.569 365.219 506.161 365.627C505.141 366.851 503.662 367.463 501.724 367.463C498.358 367.463 494.278 365.984 489.484 363.026C487.444 362.006 485.404 360.986 483.364 359.966C480.916 358.844 479.641 357.824 479.539 356.906C479.335 354.764 481.885 350.684 487.189 344.666C492.901 338.24 499.225 332.783 506.161 328.295C514.423 322.787 521.767 320.033 528.193 320.033C530.641 320.033 532.961 320.721 535.154 322.098C537.347 323.475 539.464 324.929 541.504 326.459C549.766 331.559 555.019 336.404 557.263 340.994C557.671 341.912 557.875 343.136 557.875 344.666C557.875 351.092 554.101 361.547 546.553 376.031C539.413 389.699 531.763 401.582 523.603 411.68C526.765 410.762 531.151 409.385 536.761 407.549C537.373 407.243 538.444 406.58 539.974 405.56C540.994 404.948 541.963 404.693 542.881 404.795C545.329 405.101 548.771 407.702 553.208 412.598C557.645 417.494 559.966 420.809 560.17 422.543Z" fill-rule="evenodd"/>
</g>
<g fill="#fdfdfd" filter="url(#Filter_3)" opacity="1" stroke="none" vectornator:shadowAngle="1.5708" vectornator:shadowColor="#000000" vectornator:shadowOffset="10" vectornator:shadowOpacity="0.333" vectornator:shadowRadius="10">
<path clip-path="url(#TextBounds_2)" d="M921.036 721.504C920.22 721.504 919.098 721.198 917.67 720.586C916.242 719.974 915.069 719.77 914.151 719.974L898.392 723.799L898.392 796.321C898.392 798.973 899.106 801.88 900.534 805.042C900.942 805.96 900.84 807.694 900.228 810.244C899.616 813.1 898.647 814.885 897.321 815.599C897.117 815.701 896.607 815.752 895.791 815.752C892.425 815.752 887.733 815.14 881.715 813.916C874.983 812.59 871.005 811.264 869.781 809.938C868.353 808.306 868.404 806.113 869.934 803.359C871.26 800.911 871.923 799.177 871.923 798.157L871.923 729.919L861.06 732.367C860.55 732.469 859.708 732.877 858.535 733.591C857.362 734.305 856.368 734.56 855.552 734.356C853.206 733.744 849.993 730.99 845.913 726.094C841.833 721.198 840.048 717.883 840.558 716.149C841.374 714.007 843.771 712.426 847.749 711.406C848.769 711.1 850.095 711.049 851.727 711.253C853.359 711.355 854.634 711.355 855.552 711.253L908.796 699.013C909.306 698.911 910.785 698.35 913.233 697.33C914.865 696.616 916.344 696.361 917.67 696.565C920.526 696.973 922.464 697.993 923.484 699.625C924.198 700.747 924.963 702.838 925.779 705.898C926.799 709.468 927.309 712.579 927.309 715.231C927.309 717.271 927.028 718.801 926.467 719.821C925.906 720.841 924.096 721.402 921.036 721.504Z" fill-rule="evenodd"/>
<path clip-path="url(#TextBounds_2)" d="M906.195 986.959C907.113 988.285 905.124 992.365 900.228 999.199C894.924 1006.44 889.722 1011.34 884.622 1013.89C884.01 1014.19 883.092 1014.35 881.868 1014.35C877.89 1014.35 872.688 1013.22 866.262 1010.98C859.428 1008.84 854.94 1006.49 852.798 1003.94C846.882 997.006 843.924 987.418 843.924 975.178C843.924 963.652 846.525 953.503 851.727 944.731C857.337 935.041 864.477 930.094 873.147 929.89C876.309 929.788 880.134 930.553 884.622 932.185C890.13 934.123 894.669 936.724 898.239 939.988C899.157 940.804 900.024 943.303 900.84 947.485C901.86 951.871 902.37 956.155 902.37 960.337C902.37 966.559 901.248 970.894 899.004 973.342C888.498 976.3 877.788 977.983 866.874 978.391C866.67 982.879 867.282 987.597 868.71 992.544C870.138 997.491 871.617 1000.02 873.147 1000.12C875.187 1000.22 877.635 998.74 880.491 995.68C883.041 992.926 884.622 990.631 885.234 988.795C885.948 986.041 886.917 983.236 888.141 980.38C889.773 980.176 892.986 980.89 897.78 982.522C902.574 984.154 905.379 985.633 906.195 986.959ZM878.961 944.731C877.227 944.629 874.804 947.128 871.693 952.228C868.582 957.328 866.772 962.224 866.262 966.916C870.852 966.814 874.524 965.845 877.278 964.009C878.91 962.887 879.726 958.297 879.726 950.239C879.726 946.771 879.471 944.935 878.961 944.731Z" fill-rule="evenodd"/>
<path clip-path="url(#TextBounds_2)" d="M925.32 1133.99C925.83 1136.13 924.912 1138.07 922.566 1139.81C920.628 1141.23 918.741 1142.61 916.905 1143.94L897.474 1167.35L918.894 1195.65C920.016 1196.77 921.138 1197.79 922.26 1198.71C923.79 1200.24 924.555 1201.62 924.555 1202.84C924.555 1203.56 924.249 1204.27 923.637 1204.98C922.821 1206 919.863 1207.59 914.763 1209.73C910.071 1211.97 907.011 1213.25 905.583 1213.55C902.625 1213.55 900.789 1212.33 900.075 1209.88C898.851 1205.9 893.496 1197.44 884.01 1184.48L870.546 1204.22C870.036 1206.06 869.577 1207.79 869.169 1209.42C868.353 1212.07 866.976 1213.55 865.038 1213.86C863.1 1214.06 859.224 1213.25 853.41 1211.41C847.29 1209.47 843.669 1207.74 842.547 1206.21C842.139 1205.7 841.935 1205.14 841.935 1204.53C841.935 1203.4 842.904 1201.98 844.842 1200.24C847.392 1197.9 848.718 1196.62 848.82 1196.42L869.628 1167.96L850.809 1141.49C849.381 1140.67 847.902 1139.25 846.372 1137.21C846.27 1136.08 848.82 1134.02 854.022 1131.01C859.224 1128 862.896 1126.34 865.038 1126.04C866.976 1125.83 868.276 1126.27 868.939 1127.34C869.602 1128.41 870.189 1129.56 870.699 1130.78L884.01 1151.43L898.698 1131.54C899.208 1130.32 899.718 1129.1 900.228 1127.87C900.636 1127.06 902.421 1126.5 905.583 1126.19C907.113 1126.09 910.708 1127.11 916.369 1129.25C922.03 1131.39 925.014 1132.97 925.32 1133.99Z" fill-rule="evenodd"/>
<path clip-path="url(#TextBounds_2)" d="M899.31 1341.31C899.208 1343.04 898.596 1344.55 897.474 1345.82C896.352 1347.1 895.128 1347.73 893.802 1347.73C893.394 1347.73 893.037 1347.68 892.731 1347.58C891.303 1347.07 888.09 1346.82 883.092 1346.82L883.092 1401.28C883.092 1401.18 883.423 1401.92 884.086 1403.5C884.749 1405.08 885.081 1406.43 885.081 1407.56C885.081 1410.21 883.041 1411.64 878.961 1411.84C876.819 1411.94 872.892 1411.13 867.18 1409.39C860.958 1407.56 857.643 1405.87 857.235 1404.34C857.031 1403.63 857.388 1402.25 858.306 1400.21C859.224 1398.17 859.683 1396.59 859.683 1395.47L859.683 1346.66L854.481 1346.66C852.543 1346.66 850.146 1345.13 847.29 1342.07C844.434 1339.01 843.006 1336.56 843.006 1334.73C843.006 1333.4 843.592 1332.18 844.765 1331.06C845.938 1329.93 847.239 1329.37 848.667 1329.37L859.683 1329.37L859.683 1316.98C858.153 1315.14 857.388 1313.16 857.388 1311.01C857.388 1309.08 858.306 1307.9 860.142 1307.49C861.06 1307.29 862.335 1307.19 863.967 1307.19C867.741 1307.19 872.152 1307.72 877.201 1308.79C882.25 1309.87 885.54 1310.96 887.07 1312.08C887.784 1312.59 888.141 1313.21 888.141 1313.92C888.141 1314.84 887.325 1316.22 885.693 1318.05C884.061 1319.89 883.194 1321.16 883.092 1321.88L883.092 1329.37L887.988 1329.37C889.008 1329.37 891.15 1331.03 894.414 1334.35C897.678 1337.66 899.31 1339.98 899.31 1341.31Z" fill-rule="evenodd"/>
</g>
</g>
</g>
</svg>
