<?xml version="1.0" encoding="UTF-8" standalone="no"?> <!-- Created with Vectornator (http://vectornator.io/) --><!DOCTYPE svg PUBLIC "-//W3C//DTD SVG 1.1//EN" "http://www.w3.org/Graphics/SVG/1.1/DTD/svg11.dtd">
<svg height="100%" stroke-miterlimit="10" style="fill-rule:nonzero;clip-rule:evenodd;stroke-linecap:round;stroke-linejoin:round;" version="1.1" viewBox="0 0 798 724" width="100%" xml:space="preserve" xmlns="http://www.w3.org/2000/svg" xmlns:vectornator="http://vectornator.io" xmlns:xlink="http://www.w3.org/1999/xlink">
<metadata>
<vectornator:setting key="IsTimeLapseWatermarkDisabled" value="false"/>
<vectornator:setting key="UndoHistoryDisabled" value="true"/>
<vectornator:setting key="VNDimensionsVisible" value="true"/>
<vectornator:setting key="VNSnapToGuides" value="false"/>
<vectornator:setting key="WDCMYKEnabledKey" value="false"/>
<vectornator:setting key="WDDisplayWhiteBackground" value="false"/>
<vectornator:setting key="WDDynamicGuides" value="true"/>
<vectornator:setting key="WDGuidesVisible" value="true"/>
<vectornator:setting key="WDIsolateActiveLayer" value="false"/>
<vectornator:setting key="WDOutlineMode" value="false"/>
<vectornator:setting key="WDRulersVisible" value="true"/>
<vectornator:setting key="WDSnapToEdges" value="true"/>
<vectornator:setting key="WDSnapToGrid" value="false"/>
<vectornator:setting key="WDSnapToPoints" value="false"/>
<vectornator:setting key="WDUnits" value="Pixels"/>
</metadata>
<defs>
<filter color-interpolation-filters="sRGB" filterUnits="userSpaceOnUse" height="531.965" id="Filter" width="1082.49" x="0" y="119.773">
<feDropShadow dx="-3.6732e-05" dy="10" flood-color="#000000" flood-opacity="0.333" height="531.965" stdDeviation="5" width="1082.49"/>
</filter>
<clipPath id="TextBounds">
<rect height="199.9" width="102.45" x="424.335" y="281.004"/>
</clipPath>
<filter color-interpolation-filters="sRGB" filterUnits="userSpaceOnUse" height="619.7" id="Filter_2" width="327.35" x="311.885" y="71.1036">
<feDropShadow dx="-3.6732e-05" dy="10" flood-color="#000000" flood-opacity="0.333" height="619.7" stdDeviation="5" width="327.35"/>
</filter>
</defs>
<g id="Layer-1" vectornator:layerName="Layer 1">
<g opacity="1">
<path d="M753.85 203.994L798 203.994C798 186.287 782.284 165.684 765.424 153.465C765.823 143.632 765.273 133.708 763.591 123.764C752.599 58.8633 696.595 8.36491 627.388 0.970187C550.371-7.27112 479.428 37.7297 458.62 107.883C458.027 109.882 456.592 114.288 453.712 121.214C441.545 150.507 423.197 177.526 399.218 201.515C397.417 203.321 389.801 211.062 385.12 215.866C368.627 222.7 353.364 232.288 340.161 244.578C288.051 293.628 209.417 424.775 164.026 524.456C147.512 549.833 133.101 572.303 122.023 589.713L3.67229 622.434C1.36395 623.066-0.210899 625.065-0.210899 627.33C-0.210899 654.491 9.10875 675.768 27.4892 690.567C51.7483 710.11 86.3195 714.026 110.18 714.026C125.335 714.026 136.165 712.446 137.265 712.272C138.807 712.048 140.166 711.191 140.986 709.936L185.222 642.578L401.548 642.578L418.936 700.135C410.156 702.501 405.28 704.653 404.86 704.847C399.553 707.356 397.417 713.435 400.038 718.463C402.67 723.502 409.131 725.572 414.449 723.125C414.643 723.033 434.857 713.976 474.401 713.976C513.945 713.976 534.159 723.033 534.299 723.104C535.842 723.828 537.492 724.175 539.11 724.175C543.069 724.175 546.876 722.115 548.775 718.535C551.439 713.496 549.282 707.366 543.953 704.847C542.972 704.398 519.575 693.576 474.401 693.576C460.95 693.576 449.678 694.586 440.099 695.943L423.984 642.578L447.057 642.578C460.583 642.578 474.002 641.619 487.259 639.896L494.141 659.428C485.565 661.764 480.787 663.865 480.366 664.059C475.059 666.568 472.923 672.647 475.544 677.675C478.176 682.714 484.638 684.794 489.955 682.336C490.149 682.234 510.364 673.177 549.907 673.177C589.451 673.177 609.665 682.234 609.806 682.306C611.348 683.03 612.998 683.377 614.616 683.377C618.575 683.377 622.383 681.316 624.281 677.736C626.946 672.698 624.788 666.568 619.46 664.048C618.478 663.599 595.082 652.778 549.907 652.778C536.349 652.778 525.001 653.798 515.379 655.175L508.746 636.356C642.457 609.572 753.721 499.008 764.594 371.135C768.736 322.401 760.182 273.402 739.828 229.054C745.404 221.088 750.053 212.684 753.85 203.994ZM269.908 381.875C270.523 384.191 272.723 385.741 275.139 385.741C275.571 385.741 276.013 385.69 276.445 385.588C341.272 370.35 394.235 354.612 434.037 338.792C453.313 351.154 470.82 365.923 486.094 382.793C467.638 395.38 439.765 408.211 402.864 421.001C400.07 421.98 398.625 424.908 399.66 427.549C400.459 429.62 402.53 430.895 404.719 430.895C405.334 430.895 405.96 430.793 406.575 430.589C444.781 417.34 473.743 403.917 493.03 390.627C506.739 407.099 518.346 425.397 527.547 445.185C451.242 495.795 243.675 535.533 164.781 549.211C173.324 529.168 183.604 507.3 194.952 484.78C248.96 474.039 297.953 462.636 340.55 450.886C343.408 450.101 345.048 447.276 344.217 444.573C343.376 441.87 340.42 440.289 337.529 441.105C297.36 452.192 251.398 462.952 200.884 473.162C233.244 410.363 273.263 343.974 308.891 296.821C350.171 300.217 389.003 312.498 423.003 332.03C384.527 346.758 334.52 361.435 273.834 375.694C270.954 376.368 269.196 379.142 269.908 381.875ZM133.166 702.511C121.117 703.908 66.375 708.519 34.4573 682.775C19.4531 670.678 11.4602 653.318 10.6405 631.134L113.847 602.596C104.139 617.926 98.4868 626.993 98.3574 627.197C96.3942 630.359 96.3618 634.255 98.2926 637.437C100.223 640.62 103.783 642.578 107.655 642.578L172.526 642.578L133.166 702.511ZM743.107 369.514C731.457 506.464 595.88 622.179 447.046 622.179L126.608 622.179C135.28 608.43 149.346 586.266 166.788 559.247C268.862 541.592 488.974 497.957 549.702 441.207C589.484 403.907 603.237 349.522 585.6 299.279C584.662 296.596 581.599 295.158 578.783 296.046C575.957 296.933 574.425 299.819 575.364 302.492C591.706 349.033 578.956 399.409 542.119 433.965C540.35 435.617 538.409 437.259 536.349 438.891C496.19 354.612 413.036 297.443 316.193 287.325C327.379 273.127 338.058 260.959 347.755 251.83C373.826 227.555 408.311 214.193 444.835 214.193C481.499 214.193 516.048 227.565 542.098 251.81C544.352 253.941 546.52 256.124 548.581 258.358C550.533 260.479 553.931 260.673 556.196 258.847C558.44 256.991 558.666 253.768 556.703 251.647C554.481 249.239 552.151 246.894 549.692 244.578C521.593 218.406 484.346 203.994 444.835 203.994C437.964 203.994 431.201 204.585 424.502 205.452C445.73 182.126 462.288 156.362 473.797 128.67C476.192 122.927 478.176 117.501 479.395 113.391C497.323 52.9067 558.591 14.0461 624.961 21.247C684.579 27.6116 732.827 71.0927 742.287 126.987C743.204 132.392 743.625 137.788 743.83 143.173C742.427 142.929 741.057 142.796 739.752 142.796L739.752 142.898C739.429 142.796 738.997 142.796 738.674 142.796C729.721 142.796 722.494 149.63 722.494 158.096C722.494 159.931 722.817 161.563 723.572 163.195L722.494 163.195C710.628 163.195 700.92 172.375 700.92 183.595C700.92 194.406 709.981 203.382 721.307 203.892C721.631 203.994 722.062 203.994 722.494 203.994L730.055 203.994C726.797 210.226 723.119 216.305 718.761 222.057C716.507 225.036 716.108 228.922 717.715 232.247C738.339 274.81 747.119 322.279 743.107 369.514Z" fill="#000000" fill-rule="evenodd" opacity="1" stroke="none"/>
<path d="M636.2 91.7979C618.329 91.7979 603.841 105.498 603.841 122.397C603.841 139.296 618.329 152.996 636.2 152.996C654.072 152.996 668.56 139.296 668.56 122.397C668.56 105.498 654.072 91.7979 636.2 91.7979ZM569.431 267.517C567.802 265.161 564.48 264.488 561.967 266.028C559.475 267.558 558.763 270.72 560.381 273.076C562.668 276.411 564.782 279.808 566.713 283.286C567.673 285.03 569.55 286.019 571.491 286.019C572.344 286.019 573.196 285.826 573.994 285.428C576.626 284.112 577.64 281.032 576.248 278.543C574.177 274.779 571.901 271.107 569.431 267.517ZM361.249 444.777C361.778 444.777 362.328 444.705 362.856 444.552C370.472 442.298 377.947 440.003 385.249 437.678C388.076 436.78 389.586 433.894 388.636 431.221C387.687 428.549 384.656 427.121 381.798 428.019C374.571 430.324 367.171 432.578 359.62 434.812C356.784 435.658 355.198 438.514 356.082 441.207C356.827 443.389 358.952 444.777 361.249 444.777Z" fill="#000000" fill-rule="evenodd" opacity="1" stroke="none"/>
<path d="M300.797 300.428L654.96 300.428L654.96 471.083L300.797 471.083L300.797 300.428Z" fill="#000000" fill-rule="evenodd" filter="url(#Filter)" opacity="1" stroke="#26d566" stroke-linecap="butt" stroke-linejoin="round" stroke-width="13.7911" vectornator:shadowAngle="1.5708" vectornator:shadowColor="#000000" vectornator:shadowOffset="10" vectornator:shadowOpacity="0.333" vectornator:shadowRadius="10"/>
<path d="M753.85 203.994L798 203.994C798 186.287 782.284 165.684 765.424 153.465C765.823 143.632 765.273 133.708 763.591 123.764C752.599 58.8633 696.595 8.36491 627.388 0.970187C550.371-7.27112 479.428 37.7297 458.62 107.883C458.027 109.882 456.592 114.288 453.712 121.214C441.545 150.507 423.197 177.526 399.218 201.515C397.417 203.321 389.801 211.062 385.12 215.866C368.627 222.7 353.364 232.288 340.161 244.578C288.051 293.628 209.417 424.775 164.026 524.456C147.512 549.833 133.101 572.303 122.023 589.713L3.67229 622.434C1.36395 623.066-0.210899 625.065-0.210899 627.33C-0.210899 654.491 9.10875 675.768 27.4892 690.567C51.7483 710.11 86.3195 714.026 110.18 714.026C125.335 714.026 136.165 712.446 137.265 712.272C138.807 712.048 140.166 711.191 140.986 709.936L185.222 642.578L401.548 642.578L418.936 700.135C410.156 702.501 405.28 704.653 404.86 704.847C399.553 707.356 397.417 713.435 400.038 718.463C402.67 723.502 409.131 725.572 414.449 723.125C414.643 723.033 434.857 713.976 474.401 713.976C513.945 713.976 534.159 723.033 534.299 723.104C535.842 723.828 537.492 724.175 539.11 724.175C543.069 724.175 546.876 722.115 548.775 718.535C551.439 713.496 549.282 707.366 543.953 704.847C542.972 704.398 519.575 693.576 474.401 693.576C460.95 693.576 449.678 694.586 440.099 695.943L423.984 642.578L447.057 642.578C460.583 642.578 474.002 641.619 487.259 639.896L494.141 659.428C485.565 661.764 480.787 663.865 480.366 664.059C475.059 666.568 472.923 672.647 475.544 677.675C478.176 682.714 484.638 684.794 489.955 682.336C490.149 682.234 510.364 673.177 549.907 673.177C589.451 673.177 609.665 682.234 609.806 682.306C611.348 683.03 612.998 683.377 614.616 683.377C618.575 683.377 622.383 681.316 624.281 677.736C626.946 672.698 624.788 666.568 619.46 664.048C618.478 663.599 595.082 652.778 549.907 652.778C536.349 652.778 525.001 653.798 515.379 655.175L508.746 636.356C642.457 609.572 753.721 499.008 764.594 371.135C768.736 322.401 760.182 273.402 739.828 229.054C745.404 221.088 750.053 212.684 753.85 203.994ZM269.908 381.875C270.523 384.191 272.723 385.741 275.139 385.741C275.571 385.741 276.013 385.69 276.445 385.588C341.272 370.35 394.235 354.612 434.037 338.792C453.313 351.154 470.82 365.923 486.094 382.793C467.638 395.38 439.765 408.211 402.864 421.001C400.07 421.98 398.625 424.908 399.66 427.549C400.459 429.62 402.53 430.895 404.719 430.895C405.334 430.895 405.96 430.793 406.575 430.589C444.781 417.34 473.743 403.917 493.03 390.627C506.739 407.099 518.346 425.397 527.547 445.185C451.242 495.795 243.675 535.533 164.781 549.211C173.324 529.168 183.604 507.3 194.952 484.78C248.96 474.039 297.953 462.636 340.55 450.886C343.408 450.101 345.048 447.276 344.217 444.573C343.376 441.87 340.42 440.289 337.529 441.105C297.36 452.192 251.398 462.952 200.884 473.162C233.244 410.363 273.263 343.974 308.891 296.821C350.171 300.217 389.003 312.498 423.003 332.03C384.527 346.758 334.52 361.435 273.834 375.694C270.954 376.368 269.196 379.142 269.908 381.875ZM133.166 702.511C121.117 703.908 66.375 708.519 34.4573 682.775C19.4531 670.678 11.4602 653.318 10.6405 631.134L113.847 602.596C104.139 617.926 98.4868 626.993 98.3574 627.197C96.3942 630.359 96.3618 634.255 98.2926 637.437C100.223 640.62 103.783 642.578 107.655 642.578L172.526 642.578L133.166 702.511ZM743.107 369.514C731.457 506.464 595.88 622.179 447.046 622.179L126.608 622.179C135.28 608.43 149.346 586.266 166.788 559.247C268.862 541.592 488.974 497.957 549.702 441.207C589.484 403.907 603.237 349.522 585.6 299.279C584.662 296.596 581.599 295.158 578.783 296.046C575.957 296.933 574.425 299.819 575.364 302.492C591.706 349.033 578.956 399.409 542.119 433.965C540.35 435.617 538.409 437.259 536.349 438.891C496.19 354.612 413.036 297.443 316.193 287.325C327.379 273.127 338.058 260.959 347.755 251.83C373.826 227.555 408.311 214.193 444.835 214.193C481.499 214.193 516.048 227.565 542.098 251.81C544.352 253.941 546.52 256.124 548.581 258.358C550.533 260.479 553.931 260.673 556.196 258.847C558.44 256.991 558.666 253.768 556.703 251.647C554.481 249.239 552.151 246.894 549.692 244.578C521.593 218.406 484.346 203.994 444.835 203.994C437.964 203.994 431.201 204.585 424.502 205.452C445.73 182.126 462.288 156.362 473.797 128.67C476.192 122.927 478.176 117.501 479.395 113.391C497.323 52.9067 558.591 14.0461 624.961 21.247C684.579 27.6116 732.827 71.0927 742.287 126.987C743.204 132.392 743.625 137.788 743.83 143.173C742.427 142.929 741.057 142.796 739.752 142.796L739.752 142.898C739.429 142.796 738.997 142.796 738.674 142.796C729.721 142.796 722.494 149.63 722.494 158.096C722.494 159.931 722.817 161.563 723.572 163.195L722.494 163.195C710.628 163.195 700.92 172.375 700.92 183.595C700.92 194.406 709.981 203.382 721.307 203.892C721.631 203.994 722.062 203.994 722.494 203.994L730.055 203.994C726.797 210.226 723.119 216.305 718.761 222.057C716.507 225.036 716.108 228.922 717.715 232.247C738.339 274.81 747.119 322.279 743.107 369.514Z" fill="#000000" fill-rule="evenodd" opacity="1" stroke="none"/>
<path d="M636.2 91.7979C618.329 91.7979 603.841 105.498 603.841 122.397C603.841 139.296 618.329 152.996 636.2 152.996C654.072 152.996 668.56 139.296 668.56 122.397C668.56 105.498 654.072 91.7979 636.2 91.7979ZM569.431 267.517C567.802 265.161 564.48 264.488 561.967 266.028C559.475 267.558 558.763 270.72 560.381 273.076C562.668 276.411 564.782 279.808 566.713 283.286C567.673 285.03 569.55 286.019 571.491 286.019C572.344 286.019 573.196 285.826 573.994 285.428C576.626 284.112 577.64 281.032 576.248 278.543C574.177 274.779 571.901 271.107 569.431 267.517ZM361.249 444.777C361.778 444.777 362.328 444.705 362.856 444.552C370.472 442.298 377.947 440.003 385.249 437.678C388.076 436.78 389.586 433.894 388.636 431.221C387.687 428.549 384.656 427.121 381.798 428.019C374.571 430.324 367.171 432.578 359.62 434.812C356.784 435.658 355.198 438.514 356.082 441.207C356.827 443.389 358.952 444.777 361.249 444.777Z" fill="#000000" fill-rule="evenodd" opacity="1" stroke="none"/>
<path clip-path="url(#TextBounds)" d="M516.411 343.428C516.615 344.448 516.003 345.697 514.575 347.176C513.147 348.655 511.617 349.548 509.985 349.854C508.761 350.058 506.925 349.701 504.477 348.783C501.519 347.865 499.326 347.355 497.898 347.253C494.226 346.845 489.687 347.355 484.281 348.783C477.549 350.415 471.684 353.067 466.686 356.739L466.686 371.733C470.97 369.999 475.101 369.132 479.079 369.132C484.893 369.132 492.033 372.064 500.499 377.929C508.965 383.794 513.198 389.022 513.198 393.612C513.198 407.79 509.195 420.922 501.188 433.009C493.181 445.096 484.281 451.14 474.489 451.14C469.491 451.14 461.739 447.85 451.233 441.271C440.727 434.692 435.27 429.465 434.862 425.589C434.658 423.651 435.27 421.789 436.698 420.004C438.126 418.219 439.86 417.276 441.9 417.174C445.062 416.97 449.448 419.163 455.058 423.753C461.178 428.955 464.442 431.607 464.85 431.709C470.154 429.057 475.56 423.192 481.068 414.114C486.372 405.444 489.024 398.61 489.024 393.612C489.024 390.552 487.392 389.022 484.128 389.022C481.068 389.022 476.886 391.011 471.582 394.989C466.278 398.967 463.473 400.956 463.167 400.956C461.127 401.058 457.302 399.91 451.692 397.513C446.082 395.116 442.206 392.796 440.064 390.552C439.35 389.736 438.993 388.818 438.993 387.798C438.993 387.39 439.121 386.548 439.376 385.273C439.631 383.998 439.758 383.004 439.758 382.29L439.758 340.827C439.758 339.501 440.702 338.149 442.589 336.772C444.476 335.395 446.541 334.503 448.785 334.095C449.397 333.993 450.213 334.12 451.233 334.477C452.253 334.834 453.018 335.013 453.528 335.013C454.038 335.013 454.599 334.86 455.211 334.554C462.657 331.494 471.174 329.097 480.762 327.363C487.8 326.037 492.543 325.425 494.991 325.527C496.113 325.425 497.184 325.272 498.204 325.068C499.326 324.966 500.346 325.17 501.264 325.68C504.018 327.516 507.027 330.321 510.291 334.095C513.861 338.175 515.901 341.286 516.411 343.428Z" fill="#fdfdfd" fill-rule="evenodd" filter="url(#Filter_2)" opacity="1" stroke="none" vectornator:shadowAngle="1.5708" vectornator:shadowColor="#000000" vectornator:shadowOffset="10" vectornator:shadowOpacity="0.333" vectornator:shadowRadius="10"/>
</g>
</g>
</svg>
