<?xml version="1.0" encoding="UTF-8" standalone="no"?> <!-- Created with Vectornator (http://vectornator.io/) --><!DOCTYPE svg PUBLIC "-//W3C//DTD SVG 1.1//EN" "http://www.w3.org/Graphics/SVG/1.1/DTD/svg11.dtd">
<svg height="100%" stroke-miterlimit="10" style="fill-rule:nonzero;clip-rule:evenodd;stroke-linecap:round;stroke-linejoin:round;" version="1.1" viewBox="0 0 798 724" width="100%" xml:space="preserve" xmlns="http://www.w3.org/2000/svg" xmlns:vectornator="http://vectornator.io" xmlns:xlink="http://www.w3.org/1999/xlink">
<metadata>
<vectornator:setting key="IsTimeLapseWatermarkDisabled" value="false"/>
<vectornator:setting key="UndoHistoryDisabled" value="true"/>
<vectornator:setting key="VNDimensionsVisible" value="true"/>
<vectornator:setting key="VNSnapToGuides" value="false"/>
<vectornator:setting key="WDCMYKEnabledKey" value="false"/>
<vectornator:setting key="WDDisplayWhiteBackground" value="false"/>
<vectornator:setting key="WDDynamicGuides" value="true"/>
<vectornator:setting key="WDGuidesVisible" value="true"/>
<vectornator:setting key="WDIsolateActiveLayer" value="false"/>
<vectornator:setting key="WDOutlineMode" value="false"/>
<vectornator:setting key="WDRulersVisible" value="true"/>
<vectornator:setting key="WDSnapToEdges" value="true"/>
<vectornator:setting key="WDSnapToGrid" value="false"/>
<vectornator:setting key="WDSnapToPoints" value="false"/>
<vectornator:setting key="WDUnits" value="Pixels"/>
</metadata>
<defs>
<filter color-interpolation-filters="sRGB" filterUnits="userSpaceOnUse" height="531.965" id="Filter" width="1082.49" x="0" y="119.773">
<feDropShadow dx="-3.6732e-05" dy="10" flood-color="#000000" flood-opacity="0.333" height="531.965" stdDeviation="5" width="1082.49"/>
</filter>
<clipPath id="TextBounds">
<rect height="199.9" width="201.9" x="371.272" y="278.405"/>
</clipPath>
<filter color-interpolation-filters="sRGB" filterUnits="userSpaceOnUse" height="619.7" id="Filter_2" width="625.7" x="159.372" y="68.5048">
<feDropShadow dx="-3.6732e-05" dy="10" flood-color="#000000" flood-opacity="0.333" height="619.7" stdDeviation="5" width="625.7"/>
</filter>
</defs>
<g id="Layer-1" vectornator:layerName="Layer 1">
<g opacity="1">
<path d="M754.061 203.994L798.211 203.994C798.211 186.287 782.495 165.684 765.635 153.465C766.034 143.632 765.484 133.708 763.802 123.764C752.81 58.8633 696.806 8.36491 627.599 0.970187C550.582-7.27112 479.638 37.7297 458.831 107.883C458.238 109.882 456.803 114.288 453.923 121.214C441.756 150.507 423.408 177.526 399.429 201.515C397.628 203.321 390.012 211.062 385.331 215.866C368.838 222.7 353.575 232.288 340.372 244.578C288.262 293.628 209.627 424.775 164.237 524.456C147.723 549.833 133.312 572.303 122.234 589.713L3.88318 622.434C1.57485 623.066 0 625.065 0 627.33C0 654.491 9.31965 675.768 27.7001 690.567C51.9592 710.11 86.5304 714.026 110.39 714.026C125.546 714.026 136.375 712.446 137.476 712.272C139.018 712.048 140.377 711.191 141.197 709.936L185.433 642.578L401.759 642.578L419.147 700.135C410.367 702.501 405.491 704.653 405.07 704.847C399.763 707.356 397.628 713.435 400.249 718.463C402.881 723.502 409.342 725.572 414.66 723.125C414.854 723.033 435.068 713.976 474.612 713.976C514.156 713.976 534.37 723.033 534.51 723.104C536.053 723.828 537.703 724.175 539.321 724.175C543.28 724.175 547.087 722.115 548.986 718.535C551.65 713.496 549.493 707.366 544.164 704.847C543.183 704.398 519.786 693.576 474.612 693.576C461.161 693.576 449.889 694.586 440.31 695.943L424.195 642.578L447.268 642.578C460.794 642.578 474.213 641.619 487.47 639.896L494.351 659.428C485.776 661.764 480.998 663.865 480.577 664.059C475.27 666.568 473.134 672.647 475.755 677.675C478.387 682.714 484.848 684.794 490.166 682.336C490.36 682.234 510.575 673.177 550.118 673.177C589.662 673.177 609.876 682.234 610.016 682.306C611.559 683.03 613.209 683.377 614.827 683.377C618.786 683.377 622.594 681.316 624.492 677.736C627.156 672.698 624.999 666.568 619.671 664.048C618.689 663.599 595.293 652.778 550.118 652.778C536.56 652.778 525.212 653.798 515.59 655.175L508.957 636.356C642.668 609.572 753.932 499.008 764.805 371.135C768.947 322.401 760.393 273.402 740.039 229.054C745.615 221.088 750.264 212.684 754.061 203.994ZM270.119 381.875C270.734 384.191 272.934 385.741 275.35 385.741C275.782 385.741 276.224 385.69 276.656 385.588C341.483 370.35 394.446 354.612 434.248 338.792C453.524 351.154 471.031 365.923 486.305 382.793C467.849 395.38 439.976 408.211 403.075 421.001C400.281 421.98 398.836 424.908 399.871 427.549C400.67 429.62 402.741 430.895 404.93 430.895C405.545 430.895 406.171 430.793 406.786 430.589C444.992 417.34 473.954 403.917 493.24 390.627C506.95 407.099 518.557 425.397 527.758 445.185C451.453 495.795 243.886 535.533 164.992 549.211C173.535 529.168 183.815 507.3 195.163 484.78C249.171 474.039 298.164 462.636 340.761 450.886C343.619 450.101 345.259 447.276 344.428 444.573C343.587 441.87 340.631 440.289 337.74 441.105C297.571 452.192 251.609 462.952 201.095 473.162C233.455 410.363 273.474 343.974 309.102 296.821C350.382 300.217 389.214 312.498 423.214 332.03C384.738 346.758 334.731 361.435 274.045 375.694C271.165 376.368 269.407 379.142 270.119 381.875ZM133.377 702.511C121.328 703.908 66.5859 708.519 34.6682 682.775C19.664 670.678 11.6711 653.318 10.8514 631.134L114.058 602.596C104.35 617.926 98.6977 626.993 98.5683 627.197C96.6051 630.359 96.5727 634.255 98.5035 637.437C100.434 640.62 103.994 642.578 107.866 642.578L172.737 642.578L133.377 702.511ZM743.318 369.514C731.668 506.464 596.091 622.179 447.257 622.179L126.818 622.179C135.491 608.43 149.557 586.266 166.999 559.247C269.073 541.592 489.185 497.957 549.913 441.207C589.694 403.907 603.447 349.522 585.811 299.279C584.873 296.596 581.809 295.158 578.994 296.046C576.168 296.933 574.636 299.819 575.575 302.492C591.917 349.033 579.167 399.409 542.33 433.965C540.561 435.617 538.62 437.259 536.56 438.891C496.401 354.612 413.247 297.443 316.404 287.325C327.59 273.127 338.269 260.959 347.966 251.83C374.037 227.555 408.522 214.193 445.046 214.193C481.709 214.193 516.259 227.565 542.309 251.81C544.563 253.941 546.731 256.124 548.792 258.358C550.744 260.479 554.142 260.673 556.407 258.847C558.651 256.991 558.877 253.768 556.914 251.647C554.692 249.239 552.362 246.894 549.903 244.578C521.803 218.406 484.557 203.994 445.046 203.994C438.175 203.994 431.411 204.585 424.713 205.452C445.941 182.126 462.498 156.362 474.008 128.67C476.402 122.927 478.387 117.501 479.606 113.391C497.533 52.9067 558.802 14.0461 625.172 21.247C684.789 27.6116 733.038 71.0927 742.498 126.987C743.415 132.392 743.835 137.788 744.04 143.173C742.638 142.929 741.268 142.796 739.963 142.796L739.963 142.898C739.639 142.796 739.208 142.796 738.884 142.796C729.932 142.796 722.704 149.63 722.704 158.096C722.704 159.931 723.028 161.563 723.783 163.195L722.704 163.195C710.839 163.195 701.131 172.375 701.131 183.595C701.131 194.406 710.192 203.382 721.518 203.892C721.842 203.994 722.273 203.994 722.704 203.994L730.266 203.994C727.008 210.226 723.33 216.305 718.972 222.057C716.718 225.036 716.319 228.922 717.926 232.247C738.55 274.81 747.33 322.279 743.318 369.514Z" fill="#000000" fill-rule="evenodd" opacity="1" stroke="none"/>
<path d="M636.411 91.7979C618.54 91.7979 604.051 105.498 604.051 122.397C604.051 139.296 618.54 152.996 636.411 152.996C654.283 152.996 668.771 139.296 668.771 122.397C668.771 105.498 654.283 91.7979 636.411 91.7979ZM569.642 267.517C568.013 265.161 564.691 264.488 562.178 266.028C559.686 267.558 558.974 270.72 560.592 273.076C562.879 276.411 564.993 279.808 566.924 283.286C567.884 285.03 569.761 286.019 571.702 286.019C572.555 286.019 573.407 285.826 574.205 285.428C576.837 284.112 577.851 281.032 576.459 278.543C574.388 274.779 572.112 271.107 569.642 267.517ZM361.46 444.777C361.989 444.777 362.539 444.705 363.067 444.552C370.683 442.298 378.158 440.003 385.46 437.678C388.286 436.78 389.797 433.894 388.847 431.221C387.898 428.549 384.867 427.121 382.009 428.019C374.782 430.324 367.382 432.578 359.831 434.812C356.994 435.658 355.409 438.514 356.293 441.207C357.038 443.389 359.163 444.777 361.46 444.777Z" fill="#000000" fill-rule="evenodd" opacity="1" stroke="none"/>
<path d="M301.008 300.428L655.171 300.428L655.171 471.083L301.008 471.083L301.008 300.428Z" fill="#000000" fill-rule="evenodd" filter="url(#Filter)" opacity="1" stroke="#26d566" stroke-linecap="butt" stroke-linejoin="round" stroke-width="13.7911" vectornator:shadowAngle="1.5708" vectornator:shadowColor="#000000" vectornator:shadowOffset="10" vectornator:shadowOpacity="0.333" vectornator:shadowRadius="10"/>
<path d="M754.061 203.994L798.211 203.994C798.211 186.287 782.495 165.684 765.635 153.465C766.034 143.632 765.484 133.708 763.802 123.764C752.81 58.8633 696.806 8.36491 627.599 0.970187C550.582-7.27112 479.638 37.7297 458.831 107.883C458.238 109.882 456.803 114.288 453.923 121.214C441.756 150.507 423.408 177.526 399.429 201.515C397.628 203.321 390.012 211.062 385.331 215.866C368.838 222.7 353.575 232.288 340.372 244.578C288.262 293.628 209.627 424.775 164.237 524.456C147.723 549.833 133.312 572.303 122.234 589.713L3.88318 622.434C1.57485 623.066 0 625.065 0 627.33C0 654.491 9.31965 675.768 27.7001 690.567C51.9592 710.11 86.5304 714.026 110.39 714.026C125.546 714.026 136.375 712.446 137.476 712.272C139.018 712.048 140.377 711.191 141.197 709.936L185.433 642.578L401.759 642.578L419.147 700.135C410.367 702.501 405.491 704.653 405.07 704.847C399.763 707.356 397.628 713.435 400.249 718.463C402.881 723.502 409.342 725.572 414.66 723.125C414.854 723.033 435.068 713.976 474.612 713.976C514.156 713.976 534.37 723.033 534.51 723.104C536.053 723.828 537.703 724.175 539.321 724.175C543.28 724.175 547.087 722.115 548.986 718.535C551.65 713.496 549.493 707.366 544.164 704.847C543.183 704.398 519.786 693.576 474.612 693.576C461.161 693.576 449.889 694.586 440.31 695.943L424.195 642.578L447.268 642.578C460.794 642.578 474.213 641.619 487.47 639.896L494.351 659.428C485.776 661.764 480.998 663.865 480.577 664.059C475.27 666.568 473.134 672.647 475.755 677.675C478.387 682.714 484.848 684.794 490.166 682.336C490.36 682.234 510.575 673.177 550.118 673.177C589.662 673.177 609.876 682.234 610.016 682.306C611.559 683.03 613.209 683.377 614.827 683.377C618.786 683.377 622.594 681.316 624.492 677.736C627.156 672.698 624.999 666.568 619.671 664.048C618.689 663.599 595.293 652.778 550.118 652.778C536.56 652.778 525.212 653.798 515.59 655.175L508.957 636.356C642.668 609.572 753.932 499.008 764.805 371.135C768.947 322.401 760.393 273.402 740.039 229.054C745.615 221.088 750.264 212.684 754.061 203.994ZM270.119 381.875C270.734 384.191 272.934 385.741 275.35 385.741C275.782 385.741 276.224 385.69 276.656 385.588C341.483 370.35 394.446 354.612 434.248 338.792C453.524 351.154 471.031 365.923 486.305 382.793C467.849 395.38 439.976 408.211 403.075 421.001C400.281 421.98 398.836 424.908 399.871 427.549C400.67 429.62 402.741 430.895 404.93 430.895C405.545 430.895 406.171 430.793 406.786 430.589C444.992 417.34 473.954 403.917 493.24 390.627C506.95 407.099 518.557 425.397 527.758 445.185C451.453 495.795 243.886 535.533 164.992 549.211C173.535 529.168 183.815 507.3 195.163 484.78C249.171 474.039 298.164 462.636 340.761 450.886C343.619 450.101 345.259 447.276 344.428 444.573C343.587 441.87 340.631 440.289 337.74 441.105C297.571 452.192 251.609 462.952 201.095 473.162C233.455 410.363 273.474 343.974 309.102 296.821C350.382 300.217 389.214 312.498 423.214 332.03C384.738 346.758 334.731 361.435 274.045 375.694C271.165 376.368 269.407 379.142 270.119 381.875ZM133.377 702.511C121.328 703.908 66.5859 708.519 34.6682 682.775C19.664 670.678 11.6711 653.318 10.8514 631.134L114.058 602.596C104.35 617.926 98.6977 626.993 98.5683 627.197C96.6051 630.359 96.5727 634.255 98.5035 637.437C100.434 640.62 103.994 642.578 107.866 642.578L172.737 642.578L133.377 702.511ZM743.318 369.514C731.668 506.464 596.091 622.179 447.257 622.179L126.818 622.179C135.491 608.43 149.557 586.266 166.999 559.247C269.073 541.592 489.185 497.957 549.913 441.207C589.694 403.907 603.447 349.522 585.811 299.279C584.873 296.596 581.809 295.158 578.994 296.046C576.168 296.933 574.636 299.819 575.575 302.492C591.917 349.033 579.167 399.409 542.33 433.965C540.561 435.617 538.62 437.259 536.56 438.891C496.401 354.612 413.247 297.443 316.404 287.325C327.59 273.127 338.269 260.959 347.966 251.83C374.037 227.555 408.522 214.193 445.046 214.193C481.709 214.193 516.259 227.565 542.309 251.81C544.563 253.941 546.731 256.124 548.792 258.358C550.744 260.479 554.142 260.673 556.407 258.847C558.651 256.991 558.877 253.768 556.914 251.647C554.692 249.239 552.362 246.894 549.903 244.578C521.803 218.406 484.557 203.994 445.046 203.994C438.175 203.994 431.411 204.585 424.713 205.452C445.941 182.126 462.498 156.362 474.008 128.67C476.402 122.927 478.387 117.501 479.606 113.391C497.533 52.9067 558.802 14.0461 625.172 21.247C684.789 27.6116 733.038 71.0927 742.498 126.987C743.415 132.392 743.835 137.788 744.04 143.173C742.638 142.929 741.268 142.796 739.963 142.796L739.963 142.898C739.639 142.796 739.208 142.796 738.884 142.796C729.932 142.796 722.704 149.63 722.704 158.096C722.704 159.931 723.028 161.563 723.783 163.195L722.704 163.195C710.839 163.195 701.131 172.375 701.131 183.595C701.131 194.406 710.192 203.382 721.518 203.892C721.842 203.994 722.273 203.994 722.704 203.994L730.266 203.994C727.008 210.226 723.33 216.305 718.972 222.057C716.718 225.036 716.319 228.922 717.926 232.247C738.55 274.81 747.33 322.279 743.318 369.514Z" fill="#000000" fill-rule="evenodd" opacity="1" stroke="none"/>
<path d="M636.411 91.7979C618.54 91.7979 604.051 105.498 604.051 122.397C604.051 139.296 618.54 152.996 636.411 152.996C654.283 152.996 668.771 139.296 668.771 122.397C668.771 105.498 654.283 91.7979 636.411 91.7979ZM569.642 267.517C568.013 265.161 564.691 264.488 562.178 266.028C559.686 267.558 558.974 270.72 560.592 273.076C562.879 276.411 564.993 279.808 566.924 283.286C567.884 285.03 569.761 286.019 571.702 286.019C572.555 286.019 573.407 285.826 574.205 285.428C576.837 284.112 577.851 281.032 576.459 278.543C574.388 274.779 572.112 271.107 569.642 267.517ZM361.46 444.777C361.989 444.777 362.539 444.705 363.067 444.552C370.683 442.298 378.158 440.003 385.46 437.678C388.286 436.78 389.797 433.894 388.847 431.221C387.898 428.549 384.867 427.121 382.009 428.019C374.782 430.324 367.382 432.578 359.831 434.812C356.994 435.658 355.409 438.514 356.293 441.207C357.038 443.389 359.163 444.777 361.46 444.777Z" fill="#000000" fill-rule="evenodd" opacity="1" stroke="none"/>
<g fill="#fdfdfd" filter="url(#Filter_2)" opacity="1" stroke="none" vectornator:shadowAngle="1.5708" vectornator:shadowColor="#000000" vectornator:shadowOffset="10" vectornator:shadowOpacity="0.333" vectornator:shadowRadius="10">
<path clip-path="url(#TextBounds)" d="M441.316 435.842C441.316 438.188 440.551 440.253 439.021 442.038C437.491 443.823 435.553 444.665 433.207 444.563C431.575 444.461 427.597 442.497 421.273 438.672C414.949 434.847 411.736 432.221 411.634 430.793C411.634 430.181 411.787 429.339 412.093 428.268C412.399 427.197 412.552 426.407 412.552 425.897L412.552 368.063C412.552 365.921 410.257 364.391 405.667 363.473C400.567 362.351 397.66 360.821 396.946 358.883C396.538 357.863 396.334 356.894 396.334 355.976C396.334 354.038 397.456 351.692 399.7 348.938C402.76 345.164 404.596 342.716 405.208 341.594C406.432 338.024 407.656 334.454 408.88 330.884C410.614 326.804 413.623 324.764 417.907 324.764C422.293 324.764 426.679 325.937 431.065 328.283C435.961 331.037 438.409 334.097 438.409 337.463L438.409 428.804C438.409 429.722 438.893 430.869 439.862 432.246C440.831 433.623 441.316 434.822 441.316 435.842Z" fill-rule="evenodd"/>
<path clip-path="url(#TextBounds)" d="M545.05 331.037C550.048 332.057 554.026 336.851 556.984 345.419C559.636 353.375 560.962 363.269 560.962 375.101C560.962 388.871 558.871 402.488 554.689 415.952C548.671 435.128 539.899 444.716 528.373 444.716C526.537 444.716 524.293 444.308 521.641 443.492C517.357 441.962 515.011 441.197 514.603 441.197C511.849 440.177 507.31 438.647 500.986 436.607C495.886 435.077 491.704 428.549 488.44 417.023C485.38 406.313 483.85 394.073 483.85 380.303C483.85 366.635 485.431 354.956 488.593 345.266C492.061 334.454 497.11 327.977 503.74 325.835C504.148 325.733 504.556 325.682 504.964 325.682C505.678 325.682 506.545 325.962 507.565 326.523C508.585 327.084 509.35 327.263 509.86 327.059C512.818 326.141 515.878 325.682 519.04 325.682C522.61 325.682 526.996 326.396 532.198 327.824C539.848 329.864 544.132 330.935 545.05 331.037ZM525.772 339.911C520.876 339.911 517.051 344.858 514.297 354.752C512.155 362.81 511.084 372.143 511.084 382.751C511.084 391.217 512.155 400.32 514.297 410.061C516.439 419.802 518.53 424.673 520.57 424.673C524.548 424.673 527.812 419.063 530.362 407.843C532.504 397.949 533.575 386.474 533.575 373.418C533.575 363.83 532.963 356.027 531.739 350.009C530.311 343.277 528.322 339.911 525.772 339.911Z" fill-rule="evenodd"/>
</g>
</g>
</g>
</svg>
