<?xml version="1.0" encoding="UTF-8" standalone="no"?>
<!DOCTYPE svg PUBLIC "-//W3C//DTD SVG 1.1//EN" "http://www.w3.org/Graphics/SVG/1.1/DTD/svg11.dtd">
<!-- Created with Vectornator (http://vectornator.io/) -->
<svg height="100%" stroke-miterlimit="10" style="fill-rule:nonzero;clip-rule:evenodd;stroke-linecap:round;stroke-linejoin:round;" version="1.1" viewBox="0 0 798 724" width="100%" xml:space="preserve" xmlns="http://www.w3.org/2000/svg" xmlns:vectornator="http://vectornator.io" xmlns:xlink="http://www.w3.org/1999/xlink">
<defs>
<filter color-interpolation-filters="sRGB" filterUnits="userSpaceOnUse" height="209.446" id="Filter" width="392.954" x="281.401" y="291.032">
<feDropShadow dx="-3.61999e-05" dy="10" flood-color="#000000" flood-opacity="0.333" in="SourceGraphic" result="Shadow" stdDeviation="5"/>
</filter>
</defs>
<clipPath id="ArtboardFrame">
<rect height="724" width="798" x="0" y="0"/>
</clipPath>
<g clip-path="url(#ArtboardFrame)" id="Layer-1" vectornator:layerName="Layer 1">
<g opacity="1">
<path d="M753.85 203.994L798 203.994C798 186.287 782.284 165.684 765.424 153.465C765.823 143.632 765.273 133.708 763.591 123.764C752.599 58.8633 696.595 8.36491 627.388 0.970187C550.371-7.27112 479.428 37.7297 458.62 107.883C458.027 109.882 456.592 114.288 453.712 121.214C441.545 150.507 423.197 177.526 399.218 201.515C397.417 203.321 389.801 211.062 385.12 215.866C368.627 222.7 353.364 232.288 340.161 244.578C288.051 293.628 209.417 424.775 164.026 524.456C147.512 549.833 133.101 572.303 122.023 589.713L3.67229 622.434C1.36395 623.066-0.210899 625.065-0.210899 627.33C-0.210899 654.491 9.10875 675.768 27.4892 690.567C51.7483 710.11 86.3195 714.026 110.18 714.026C125.335 714.026 136.165 712.446 137.265 712.272C138.807 712.048 140.166 711.191 140.986 709.936L185.222 642.578L401.548 642.578L418.936 700.135C410.156 702.501 405.28 704.653 404.86 704.847C399.553 707.356 397.417 713.435 400.038 718.463C402.67 723.502 409.131 725.572 414.449 723.125C414.643 723.033 434.857 713.976 474.401 713.976C513.945 713.976 534.159 723.033 534.299 723.104C535.842 723.828 537.492 724.175 539.11 724.175C543.069 724.175 546.876 722.115 548.775 718.535C551.439 713.496 549.282 707.366 543.953 704.847C542.972 704.398 519.575 693.576 474.401 693.576C460.95 693.576 449.678 694.586 440.099 695.943L423.984 642.578L447.057 642.578C460.583 642.578 474.002 641.619 487.259 639.896L494.141 659.428C485.565 661.764 480.787 663.865 480.366 664.059C475.059 666.568 472.923 672.647 475.544 677.675C478.176 682.714 484.638 684.794 489.955 682.336C490.149 682.234 510.364 673.177 549.907 673.177C589.451 673.177 609.665 682.234 609.806 682.306C611.348 683.03 612.998 683.377 614.616 683.377C618.575 683.377 622.383 681.316 624.281 677.736C626.946 672.698 624.788 666.568 619.46 664.048C618.478 663.599 595.082 652.778 549.907 652.778C536.349 652.778 525.001 653.798 515.379 655.175L508.746 636.356C642.457 609.572 753.721 499.008 764.594 371.135C768.736 322.401 760.182 273.402 739.828 229.054C745.404 221.088 750.053 212.684 753.85 203.994ZM269.908 381.875C270.523 384.191 272.723 385.741 275.139 385.741C275.571 385.741 276.013 385.69 276.445 385.588C341.272 370.35 394.235 354.612 434.037 338.792C453.313 351.154 470.82 365.923 486.094 382.793C467.638 395.38 439.765 408.211 402.864 421.001C400.07 421.98 398.625 424.908 399.66 427.549C400.459 429.62 402.53 430.895 404.719 430.895C405.334 430.895 405.96 430.793 406.575 430.589C444.781 417.34 473.743 403.917 493.03 390.627C506.739 407.099 518.346 425.397 527.547 445.185C451.242 495.795 243.675 535.533 164.781 549.211C173.324 529.168 183.604 507.3 194.952 484.78C248.96 474.039 297.953 462.636 340.55 450.886C343.408 450.101 345.048 447.276 344.217 444.573C343.376 441.87 340.42 440.289 337.529 441.105C297.36 452.192 251.398 462.952 200.884 473.162C233.244 410.363 273.263 343.974 308.891 296.821C350.171 300.217 389.003 312.498 423.003 332.03C384.527 346.758 334.52 361.435 273.834 375.694C270.954 376.368 269.196 379.142 269.908 381.875ZM133.166 702.511C121.117 703.908 66.375 708.519 34.4573 682.775C19.4531 670.678 11.4602 653.318 10.6405 631.134L113.847 602.596C104.139 617.926 98.4868 626.993 98.3574 627.197C96.3942 630.359 96.3618 634.255 98.2926 637.437C100.223 640.62 103.783 642.578 107.655 642.578L172.526 642.578L133.166 702.511ZM743.107 369.514C731.457 506.464 595.88 622.179 447.046 622.179L126.608 622.179C135.28 608.43 149.346 586.266 166.788 559.247C268.862 541.592 488.974 497.957 549.702 441.207C589.484 403.907 603.237 349.522 585.6 299.279C584.662 296.596 581.599 295.158 578.783 296.046C575.957 296.933 574.425 299.819 575.364 302.492C591.706 349.033 578.956 399.409 542.119 433.965C540.35 435.617 538.409 437.259 536.349 438.891C496.19 354.612 413.036 297.443 316.193 287.325C327.379 273.127 338.058 260.959 347.755 251.83C373.826 227.555 408.311 214.193 444.835 214.193C481.499 214.193 516.048 227.565 542.098 251.81C544.352 253.941 546.52 256.124 548.581 258.358C550.533 260.479 553.931 260.673 556.196 258.847C558.44 256.991 558.666 253.768 556.703 251.647C554.481 249.239 552.151 246.894 549.692 244.578C521.593 218.406 484.346 203.994 444.835 203.994C437.964 203.994 431.201 204.585 424.502 205.452C445.73 182.126 462.288 156.362 473.797 128.67C476.192 122.927 478.176 117.501 479.395 113.391C497.323 52.9067 558.591 14.0461 624.961 21.247C684.579 27.6116 732.827 71.0927 742.287 126.987C743.204 132.392 743.625 137.788 743.83 143.173C742.427 142.929 741.057 142.796 739.752 142.796L739.752 142.898C739.429 142.796 738.997 142.796 738.674 142.796C729.721 142.796 722.494 149.63 722.494 158.096C722.494 159.931 722.817 161.563 723.572 163.195L722.494 163.195C710.628 163.195 700.92 172.375 700.92 183.595C700.92 194.406 709.981 203.382 721.307 203.892C721.631 203.994 722.062 203.994 722.494 203.994L730.055 203.994C726.797 210.226 723.119 216.305 718.761 222.057C716.507 225.036 716.108 228.922 717.715 232.247C738.339 274.81 747.119 322.279 743.107 369.514Z" fill="#000000" fill-rule="evenodd" opacity="1" stroke="none"/>
<path d="M636.2 91.7979C618.329 91.7979 603.841 105.498 603.841 122.397C603.841 139.296 618.329 152.996 636.2 152.996C654.072 152.996 668.56 139.296 668.56 122.397C668.56 105.498 654.072 91.7979 636.2 91.7979ZM569.431 267.517C567.802 265.161 564.48 264.488 561.967 266.028C559.475 267.558 558.763 270.72 560.381 273.076C562.668 276.411 564.782 279.808 566.713 283.286C567.673 285.03 569.55 286.019 571.491 286.019C572.344 286.019 573.196 285.826 573.994 285.428C576.626 284.112 577.64 281.032 576.248 278.543C574.177 274.779 571.901 271.107 569.431 267.517ZM361.249 444.777C361.778 444.777 362.328 444.705 362.856 444.552C370.472 442.298 377.947 440.003 385.249 437.678C388.076 436.78 389.586 433.894 388.636 431.221C387.687 428.549 384.656 427.121 381.798 428.019C374.571 430.324 367.171 432.578 359.62 434.812C356.784 435.658 355.198 438.514 356.082 441.207C356.827 443.389 358.952 444.777 361.249 444.777Z" fill="#000000" fill-rule="evenodd" opacity="1" stroke="none"/>
<path d="M300.797 300.428L654.96 300.428L654.96 471.083L300.797 471.083L300.797 300.428Z" fill="#000000" fill-rule="evenodd" filter="url(#Filter)" stroke="#26d566" stroke-linecap="butt" stroke-linejoin="round" stroke-width="13.7911" vectornator:shadowAngle="1.5708" vectornator:shadowColor="#000000" vectornator:shadowOffset="10" vectornator:shadowOpacity="0.333" vectornator:shadowRadius="10"/>
<path d="M753.85 203.994L798 203.994C798 186.287 782.284 165.684 765.424 153.465C765.823 143.632 765.273 133.708 763.591 123.764C752.599 58.8633 696.595 8.36491 627.388 0.970187C550.371-7.27112 479.428 37.7297 458.62 107.883C458.027 109.882 456.592 114.288 453.712 121.214C441.545 150.507 423.197 177.526 399.218 201.515C397.417 203.321 389.801 211.062 385.12 215.866C368.627 222.7 353.364 232.288 340.161 244.578C288.051 293.628 209.417 424.775 164.026 524.456C147.512 549.833 133.101 572.303 122.023 589.713L3.67229 622.434C1.36395 623.066-0.210899 625.065-0.210899 627.33C-0.210899 654.491 9.10875 675.768 27.4892 690.567C51.7483 710.11 86.3195 714.026 110.18 714.026C125.335 714.026 136.165 712.446 137.265 712.272C138.807 712.048 140.166 711.191 140.986 709.936L185.222 642.578L401.548 642.578L418.936 700.135C410.156 702.501 405.28 704.653 404.86 704.847C399.553 707.356 397.417 713.435 400.038 718.463C402.67 723.502 409.131 725.572 414.449 723.125C414.643 723.033 434.857 713.976 474.401 713.976C513.945 713.976 534.159 723.033 534.299 723.104C535.842 723.828 537.492 724.175 539.11 724.175C543.069 724.175 546.876 722.115 548.775 718.535C551.439 713.496 549.282 707.366 543.953 704.847C542.972 704.398 519.575 693.576 474.401 693.576C460.95 693.576 449.678 694.586 440.099 695.943L423.984 642.578L447.057 642.578C460.583 642.578 474.002 641.619 487.259 639.896L494.141 659.428C485.565 661.764 480.787 663.865 480.366 664.059C475.059 666.568 472.923 672.647 475.544 677.675C478.176 682.714 484.638 684.794 489.955 682.336C490.149 682.234 510.364 673.177 549.907 673.177C589.451 673.177 609.665 682.234 609.806 682.306C611.348 683.03 612.998 683.377 614.616 683.377C618.575 683.377 622.383 681.316 624.281 677.736C626.946 672.698 624.788 666.568 619.46 664.048C618.478 663.599 595.082 652.778 549.907 652.778C536.349 652.778 525.001 653.798 515.379 655.175L508.746 636.356C642.457 609.572 753.721 499.008 764.594 371.135C768.736 322.401 760.182 273.402 739.828 229.054C745.404 221.088 750.053 212.684 753.85 203.994ZM269.908 381.875C270.523 384.191 272.723 385.741 275.139 385.741C275.571 385.741 276.013 385.69 276.445 385.588C341.272 370.35 394.235 354.612 434.037 338.792C453.313 351.154 470.82 365.923 486.094 382.793C467.638 395.38 439.765 408.211 402.864 421.001C400.07 421.98 398.625 424.908 399.66 427.549C400.459 429.62 402.53 430.895 404.719 430.895C405.334 430.895 405.96 430.793 406.575 430.589C444.781 417.34 473.743 403.917 493.03 390.627C506.739 407.099 518.346 425.397 527.547 445.185C451.242 495.795 243.675 535.533 164.781 549.211C173.324 529.168 183.604 507.3 194.952 484.78C248.96 474.039 297.953 462.636 340.55 450.886C343.408 450.101 345.048 447.276 344.217 444.573C343.376 441.87 340.42 440.289 337.529 441.105C297.36 452.192 251.398 462.952 200.884 473.162C233.244 410.363 273.263 343.974 308.891 296.821C350.171 300.217 389.003 312.498 423.003 332.03C384.527 346.758 334.52 361.435 273.834 375.694C270.954 376.368 269.196 379.142 269.908 381.875ZM133.166 702.511C121.117 703.908 66.375 708.519 34.4573 682.775C19.4531 670.678 11.4602 653.318 10.6405 631.134L113.847 602.596C104.139 617.926 98.4868 626.993 98.3574 627.197C96.3942 630.359 96.3618 634.255 98.2926 637.437C100.223 640.62 103.783 642.578 107.655 642.578L172.526 642.578L133.166 702.511ZM743.107 369.514C731.457 506.464 595.88 622.179 447.046 622.179L126.608 622.179C135.28 608.43 149.346 586.266 166.788 559.247C268.862 541.592 488.974 497.957 549.702 441.207C589.484 403.907 603.237 349.522 585.6 299.279C584.662 296.596 581.599 295.158 578.783 296.046C575.957 296.933 574.425 299.819 575.364 302.492C591.706 349.033 578.956 399.409 542.119 433.965C540.35 435.617 538.409 437.259 536.349 438.891C496.19 354.612 413.036 297.443 316.193 287.325C327.379 273.127 338.058 260.959 347.755 251.83C373.826 227.555 408.311 214.193 444.835 214.193C481.499 214.193 516.048 227.565 542.098 251.81C544.352 253.941 546.52 256.124 548.581 258.358C550.533 260.479 553.931 260.673 556.196 258.847C558.44 256.991 558.666 253.768 556.703 251.647C554.481 249.239 552.151 246.894 549.692 244.578C521.593 218.406 484.346 203.994 444.835 203.994C437.964 203.994 431.201 204.585 424.502 205.452C445.73 182.126 462.288 156.362 473.797 128.67C476.192 122.927 478.176 117.501 479.395 113.391C497.323 52.9067 558.591 14.0461 624.961 21.247C684.579 27.6116 732.827 71.0927 742.287 126.987C743.204 132.392 743.625 137.788 743.83 143.173C742.427 142.929 741.057 142.796 739.752 142.796L739.752 142.898C739.429 142.796 738.997 142.796 738.674 142.796C729.721 142.796 722.494 149.63 722.494 158.096C722.494 159.931 722.817 161.563 723.572 163.195L722.494 163.195C710.628 163.195 700.92 172.375 700.92 183.595C700.92 194.406 709.981 203.382 721.307 203.892C721.631 203.994 722.062 203.994 722.494 203.994L730.055 203.994C726.797 210.226 723.119 216.305 718.761 222.057C716.507 225.036 716.108 228.922 717.715 232.247C738.339 274.81 747.119 322.279 743.107 369.514Z" fill="#000000" fill-rule="evenodd" opacity="1" stroke="none"/>
<path d="M636.2 91.7979C618.329 91.7979 603.841 105.498 603.841 122.397C603.841 139.296 618.329 152.996 636.2 152.996C654.072 152.996 668.56 139.296 668.56 122.397C668.56 105.498 654.072 91.7979 636.2 91.7979ZM569.431 267.517C567.802 265.161 564.48 264.488 561.967 266.028C559.475 267.558 558.763 270.72 560.381 273.076C562.668 276.411 564.782 279.808 566.713 283.286C567.673 285.03 569.55 286.019 571.491 286.019C572.344 286.019 573.196 285.826 573.994 285.428C576.626 284.112 577.64 281.032 576.248 278.543C574.177 274.779 571.901 271.107 569.431 267.517ZM361.249 444.777C361.778 444.777 362.328 444.705 362.856 444.552C370.472 442.298 377.947 440.003 385.249 437.678C388.076 436.78 389.586 433.894 388.636 431.221C387.687 428.549 384.656 427.121 381.798 428.019C374.571 430.324 367.171 432.578 359.62 434.812C356.784 435.658 355.198 438.514 356.082 441.207C356.827 443.389 358.952 444.777 361.249 444.777Z" fill="#000000" fill-rule="evenodd" opacity="1" stroke="none"/>
<g fill="#fdfdfd" opacity="1" stroke="none">
<path d="M388.435 441.416C388.435 443.762 387.67 445.827 386.14 447.612C384.61 449.397 382.672 450.239 380.326 450.137C378.694 450.035 374.716 448.071 368.392 444.246C362.068 440.421 358.855 437.795 358.753 436.367C358.753 435.755 358.906 434.913 359.212 433.842C359.518 432.771 359.671 431.981 359.671 431.471L359.671 373.637C359.671 371.495 357.376 369.965 352.786 369.047C347.686 367.925 344.779 366.395 344.065 364.457C343.657 363.437 343.453 362.468 343.453 361.55C343.453 359.612 344.575 357.266 346.819 354.512C349.879 350.738 351.715 348.29 352.327 347.168C353.551 343.598 354.775 340.028 355.999 336.458C357.733 332.378 360.742 330.338 365.026 330.338C369.412 330.338 373.798 331.511 378.184 333.857C383.08 336.611 385.528 339.671 385.528 343.037L385.528 434.378C385.528 435.296 386.012 436.443 386.981 437.82C387.95 439.197 388.435 440.396 388.435 441.416Z"/>
<path d="M500.431 350.687C505.021 361.703 507.316 375.32 507.316 391.538C507.316 405.206 505.531 417.191 501.961 427.493C498.085 438.917 492.526 446.261 485.284 449.525C483.652 450.341 481.714 450.749 479.47 450.749C475.084 450.749 468.709 448.964 460.345 445.394C451.471 441.62 445.249 438.509 441.679 436.061C435.865 432.185 432.754 427.952 432.346 423.362C431.53 421.118 431.122 419.129 431.122 417.395C431.122 415.559 431.938 413.799 433.57 412.116C435.202 410.433 436.987 409.745 438.925 410.051C449.533 411.989 456.724 414.998 460.498 419.078C460.498 427.748 462.64 432.287 466.924 432.695C471.208 433.001 474.727 428.411 477.481 418.925C479.419 412.397 480.643 405.206 481.153 397.352C475.441 405.41 470.341 409.592 465.853 409.898C462.487 410.204 459.223 409.694 456.061 408.368C452.899 407.042 449.864 405.741 446.957 404.466C444.05 403.191 441.271 401.891 438.619 400.565C435.967 399.239 433.927 397.556 432.499 395.516C429.949 391.742 428.674 386.744 428.674 380.522C428.674 368.894 432.193 357.674 439.231 346.862C446.677 335.234 455.296 329.42 465.088 329.42C471.208 329.42 478.093 331.689 485.743 336.228C493.393 340.767 498.289 345.587 500.431 350.687ZM476.41 349.004C468.964 350.33 462.997 356.042 458.509 366.14C456.163 371.444 454.99 377.003 454.99 382.817C454.99 385.775 455.296 388.733 455.908 391.691C471.208 385.061 478.858 374.963 478.858 361.397C478.858 357.317 478.042 353.186 476.41 349.004Z"/>
<path d="M609.367 346.403C609.571 347.423 608.959 348.672 607.531 350.151C606.103 351.63 604.573 352.523 602.941 352.829C601.717 353.033 599.881 352.676 597.433 351.758C594.475 350.84 592.282 350.33 590.854 350.228C587.182 349.82 582.643 350.33 577.237 351.758C570.505 353.39 564.64 356.042 559.642 359.714L559.642 374.708C563.926 372.974 568.057 372.107 572.035 372.107C577.849 372.107 584.989 375.039 593.455 380.904C601.921 386.769 606.154 391.997 606.154 396.587C606.154 410.765 602.15 423.897 594.143 435.984C586.136 448.071 577.237 454.115 567.445 454.115C562.447 454.115 554.695 450.825 544.189 444.246C533.683 437.667 528.226 432.44 527.818 428.564C527.614 426.626 528.226 424.764 529.654 422.979C531.082 421.194 532.816 420.251 534.856 420.149C538.018 419.945 542.404 422.138 548.014 426.728C554.134 431.93 557.398 434.582 557.806 434.684C563.11 432.032 568.516 426.167 574.024 417.089C579.328 408.419 581.98 401.585 581.98 396.587C581.98 393.527 580.348 391.997 577.084 391.997C574.024 391.997 569.842 393.986 564.538 397.964C559.234 401.942 556.429 403.931 556.123 403.931C554.083 404.033 550.258 402.885 544.648 400.488C539.038 398.091 535.162 395.771 533.02 393.527C532.306 392.711 531.949 391.793 531.949 390.773C531.949 390.365 532.076 389.523 532.331 388.248C532.586 386.973 532.714 385.979 532.714 385.265L532.714 343.802C532.714 342.476 533.657 341.124 535.544 339.747C537.431 338.37 539.497 337.478 541.741 337.07C542.353 336.968 543.169 337.095 544.189 337.452C545.209 337.809 545.974 337.988 546.484 337.988C546.994 337.988 547.555 337.835 548.167 337.529C555.613 334.469 564.13 332.072 573.718 330.338C580.756 329.012 585.499 328.4 587.947 328.502C589.069 328.4 590.14 328.247 591.16 328.043C592.282 327.941 593.302 328.145 594.22 328.655C596.974 330.491 599.983 333.296 603.247 337.07C606.817 341.15 608.857 344.261 609.367 346.403Z"/>
</g>
</g>
</g>
</svg>
